<svg width="52" height="53" viewBox="0 0 52 53" fill="none" xmlns="http://www.w3.org/2000/svg">
<path d="M18.1805 1.03503H0V40.0109H18.1805V1.03503ZM13.3138 35.5071C13.3121 36.0249 13.1055 36.5209 12.7392 36.8866C12.3728 37.2523 11.8766 37.4579 11.3592 37.4584H6.82127C6.3039 37.4577 5.80786 37.252 5.44158 36.8864C5.07531 36.5207 4.8686 36.0248 4.86663 35.5071V30.9662C4.86737 30.4476 5.07354 29.9506 5.43995 29.5839C5.80635 29.2173 6.3031 29.011 6.82127 29.0102H11.3592C11.8774 29.011 12.3741 29.2173 12.7405 29.5839C13.1069 29.9506 13.3131 30.4476 13.3138 30.9662V35.5071ZM13.3138 23.1582C13.3131 23.6767 13.1069 24.1738 12.7405 24.5404C12.3741 24.9071 11.8774 25.1134 11.3592 25.1141H6.82127C6.3031 25.1134 5.80635 24.9071 5.43995 24.5404C5.07354 24.1738 4.86737 23.6767 4.86663 23.1582V18.6163C4.86737 18.0977 5.07354 17.6007 5.43995 17.234C5.80635 16.8674 6.3031 16.6611 6.82127 16.6603H11.3592C11.8774 16.6611 12.3741 16.8674 12.7405 17.234C13.1069 17.6007 13.3131 18.0977 13.3138 18.6163V23.1582ZM13.3138 10.8083C13.3131 11.3268 13.1069 11.8239 12.7405 12.1905C12.3741 12.5572 11.8774 12.7635 11.3592 12.7642H6.82127C6.3031 12.7635 5.80635 12.5572 5.43995 12.1905C5.07354 11.8239 4.86737 11.3268 4.86663 10.8083V6.26731C4.86737 5.74879 5.07354 5.25172 5.43995 4.88506C5.80635 4.51841 6.3031 4.3121 6.82127 4.31136H11.3592C11.8774 4.31186 12.3743 4.51809 12.7408 4.88479C13.1072 5.2515 13.3133 5.74871 13.3138 6.26731V10.8083Z" fill="#37405E"/>
<path d="M41.7521 48.0586H51.9951V50.0313H41.7521V48.0586Z" fill="#37405E"/>
<path d="M30.4579 20.3576H27.0175C26.8857 20.3576 26.7789 20.4645 26.7789 20.5964V24.039C26.7789 24.1709 26.8857 24.2778 27.0175 24.2778H30.4579C30.5897 24.2778 30.6965 24.1709 30.6965 24.039V20.5964C30.6965 20.4645 30.5897 20.3576 30.4579 20.3576Z" fill="#37405E"/>
<path d="M45.0157 20.3576H41.5763C41.4445 20.3576 41.3377 20.4645 41.3377 20.5964V24.039C41.3377 24.1709 41.4445 24.2778 41.5763 24.2778H45.0157C45.1475 24.2778 45.2544 24.1709 45.2544 24.039V20.5964C45.2544 20.4645 45.1475 20.3576 45.0157 20.3576Z" fill="#37405E"/>
<path d="M11.3603 6.16975H6.82054C6.76721 6.16975 6.72397 6.21302 6.72397 6.26639V10.8092C6.72397 10.8626 6.76721 10.9058 6.82054 10.9058H11.3603C11.4137 10.9058 11.4569 10.8626 11.4569 10.8092V6.26639C11.4569 6.21302 11.4137 6.16975 11.3603 6.16975Z" fill="#37405E"/>
<path d="M45.0157 31.1157H41.5763C41.4445 31.1157 41.3377 31.2227 41.3377 31.3546V34.7963C41.3377 34.9282 41.4445 35.0351 41.5763 35.0351H45.0157C45.1475 35.0351 45.2544 34.9282 45.2544 34.7963V31.3546C45.2544 31.2227 45.1475 31.1157 45.0157 31.1157Z" fill="#37405E"/>
<path d="M20.0377 46.2003H30.9883V44.4766C31.0401 43.0829 31.6298 41.7635 32.6334 40.7958C33.6371 39.8281 34.9766 39.2874 36.3703 39.2874C37.7641 39.2874 39.1035 39.8281 40.1072 40.7958C41.1109 41.7635 41.7006 43.0829 41.7523 44.4766V46.2003H52V15.7822L20.0423 10.1142L20.0377 46.2003ZM39.481 20.5964C39.4815 20.0405 39.7024 19.5075 40.0951 19.1143C40.4878 18.7211 41.0204 18.4999 41.5759 18.4992H45.0116C45.5671 18.4999 46.0997 18.7211 46.4924 19.1143C46.8851 19.5075 47.1059 20.0405 47.1064 20.5964V24.0344C47.1057 24.5901 46.8848 25.1229 46.4921 25.5159C46.0994 25.9088 45.5669 26.1299 45.0116 26.1306H41.5759C41.0205 26.1299 40.4881 25.9088 40.0954 25.5159C39.7027 25.1229 39.4818 24.5901 39.481 24.0344V20.5964ZM39.481 31.3546C39.4815 30.7987 39.7024 30.2657 40.0951 29.8725C40.4878 29.4793 41.0204 29.2581 41.5759 29.2574H45.0116C45.5671 29.2581 46.0997 29.4793 46.4924 29.8725C46.8851 30.2657 47.1059 30.7987 47.1064 31.3546V34.7926C47.1059 35.3485 46.8851 35.8815 46.4924 36.2746C46.0997 36.6678 45.5671 36.889 45.0116 36.8898H41.5759C41.0204 36.889 40.4878 36.6678 40.0951 36.2746C39.7024 35.8815 39.4815 35.3485 39.481 34.7926V31.3546ZM24.922 20.5964C24.9227 20.0398 25.1443 19.5062 25.5379 19.1129C25.9316 18.7197 26.4652 18.4989 27.0215 18.4992H30.4572C31.0128 18.4999 31.5454 18.7211 31.9383 19.1143C32.3312 19.5074 32.5522 20.0404 32.553 20.5964V24.0344C32.5532 24.31 32.4992 24.583 32.394 24.8378C32.2888 25.0926 32.1345 25.3241 31.9399 25.5192C31.7453 25.7143 31.5142 25.8691 31.2598 25.9748C31.0054 26.0805 30.7326 26.135 30.4572 26.1353H27.0215C26.4659 26.1348 25.9333 25.9138 25.5404 25.5208C25.1475 25.1278 24.9264 24.5949 24.9257 24.039L24.922 20.5964ZM24.922 31.3546C24.9227 30.7979 25.1443 30.2644 25.5379 29.8711C25.9316 29.4779 26.4652 29.2571 27.0215 29.2574H30.4572C31.0128 29.2581 31.5454 29.4793 31.9383 29.8724C32.3312 30.2656 32.5522 30.7986 32.553 31.3546V34.7926C32.5532 35.3492 32.3326 35.8831 31.9396 36.2771C31.5466 36.671 31.0134 36.8927 30.4572 36.8935H27.0215C26.4659 36.8927 25.9332 36.6716 25.5403 36.2784C25.1475 35.8853 24.9264 35.3523 24.9257 34.7963L24.922 31.3546Z" fill="#37405E"/>
<path d="M11.3603 18.5187H6.82054C6.76721 18.5187 6.72397 18.562 6.72397 18.6153V23.1591C6.72397 23.2124 6.76721 23.2557 6.82054 23.2557H11.3603C11.4137 23.2557 11.4569 23.2124 11.4569 23.1591V18.6153C11.4569 18.562 11.4137 18.5187 11.3603 18.5187Z" fill="#37405E"/>
<path d="M20.0377 48.0586H30.9883V50.0313H20.0377V48.0586Z" fill="#37405E"/>
<path d="M0 41.8693H18.1805V45.0462H0V41.8693Z" fill="#37405E"/>
<path d="M11.3603 30.8686H6.82054C6.76721 30.8686 6.72397 30.9119 6.72397 30.9652V35.508C6.72397 35.5614 6.76721 35.6047 6.82054 35.6047H11.3603C11.4137 35.6047 11.4569 35.5614 11.4569 35.508V30.9652C11.4569 30.9119 11.4137 30.8686 11.3603 30.8686Z" fill="#37405E"/>
<path d="M30.4579 31.1157H27.0175C26.8857 31.1157 26.7789 31.2227 26.7789 31.3546V34.7963C26.7789 34.9282 26.8857 35.0351 27.0175 35.0351H30.4579C30.5897 35.0351 30.6965 34.9282 30.6965 34.7963V31.3546C30.6965 31.2227 30.5897 31.1157 30.4579 31.1157Z" fill="#37405E"/>
<path d="M48.8585 13.3384V7.22808L23.8762 2.59791V8.91084L48.8585 13.3384Z" fill="#37405E"/>
<path d="M18.1805 47.1517C18.1805 47.1443 18.1805 47.1378 18.1805 47.1294C18.1805 47.1211 18.1805 47.1155 18.1805 47.1071V46.9046H0V50.0313H18.1805V47.1517Z" fill="#37405E"/>
<path d="M36.3704 40.9494C35.4345 40.9494 34.537 41.3214 33.8753 41.9836C33.2136 42.6458 32.8418 43.5439 32.8418 44.4803V50.035H39.8915V44.4766C39.8905 43.5421 39.5194 42.646 38.8593 41.9849C38.1993 41.3237 37.3043 40.9514 36.3704 40.9494Z" fill="#37405E"/>
</svg>
