<svg width="52" height="53" viewBox="0 0 52 53" fill="none" xmlns="http://www.w3.org/2000/svg">
<path d="M49.4 26.873C49.4 26.3963 49.01 26.0063 48.5333 26.0063V23.4063C48.5333 21.9763 47.3633 20.8063 45.9333 20.8063C44.5033 20.8063 43.3333 21.9763 43.3333 23.4063V26.0063H39.8233C39.39 19.0557 33.8173 13.483 26.8667 13.0497V8.67301H36.4C36.7033 8.67301 36.9807 8.51702 37.1367 8.26568C37.2927 8.01435 37.31 7.69368 37.1713 7.42502L35.6287 4.34835L37.1713 1.27168C37.31 1.00302 37.2927 0.682348 37.1367 0.431015C36.9807 0.179682 36.7033 0.0236816 36.4 0.0236816H26C25.5233 0.0236816 25.1333 0.413682 25.1333 0.890348V13.067C18.1827 13.5003 12.61 19.073 12.1767 26.0237H8.66667V23.4237C8.66667 21.9937 7.49667 20.8237 6.06667 20.8237C4.63667 20.8237 3.46667 21.9937 3.46667 23.4237V26.0237C2.99 26.0237 2.6 26.4137 2.6 26.8903V50.2903H0V52.0237H52V50.2903H49.4V26.873ZM38.09 26.0063H32.916C32.786 21.5603 31.6593 17.7383 29.952 15.4157C34.4413 16.967 37.7433 21.0837 38.09 26.0063ZM22.048 15.4157C20.3407 17.7383 19.214 21.5603 19.084 26.0063H13.91C14.2567 21.0837 17.5587 16.967 22.048 15.4157ZM26.8667 50.273H25.1333V43.3397H26.8667V50.273ZM47.6667 50.273H32.9333V42.473C32.9333 41.9963 32.5433 41.6063 32.0667 41.6063H19.9333C19.4567 41.6063 19.0667 41.9963 19.0667 42.473V50.273H4.33333V27.7397H47.6667V50.273Z" fill="#37405E"/>
<path d="M6.06667 35.5397H9.53333C10.01 35.5397 10.4 35.1497 10.4 34.673V31.2064C10.4 29.7764 9.23 28.6064 7.8 28.6064C6.37 28.6064 5.2 29.7764 5.2 31.2064V34.673C5.2 35.1497 5.59 35.5397 6.06667 35.5397Z" fill="#37405E"/>
<path d="M12.1333 35.5397H15.6C16.0767 35.5397 16.4667 35.1497 16.4667 34.673V31.2064C16.4667 29.7764 15.2967 28.6064 13.8667 28.6064C12.4367 28.6064 11.2667 29.7764 11.2667 31.2064V34.673C11.2667 35.1497 11.6567 35.5397 12.1333 35.5397Z" fill="#37405E"/>
<path d="M20.8 35.5397H24.2667C24.7433 35.5397 25.1333 35.1497 25.1333 34.673V31.2064C25.1333 29.7764 23.9633 28.6064 22.5333 28.6064C21.1033 28.6064 19.9333 29.7764 19.9333 31.2064V34.673C19.9333 35.1497 20.3233 35.5397 20.8 35.5397Z" fill="#37405E"/>
<path d="M27.7333 35.5397H31.2C31.6767 35.5397 32.0667 35.1497 32.0667 34.673V31.2064C32.0667 29.7764 30.8967 28.6064 29.4667 28.6064C28.0367 28.6064 26.8667 29.7764 26.8667 31.2064V34.673C26.8667 35.1497 27.2567 35.5397 27.7333 35.5397Z" fill="#37405E"/>
<path d="M36.4 35.5397H39.8667C40.3433 35.5397 40.7333 35.1497 40.7333 34.673V31.2064C40.7333 29.7764 39.5633 28.6064 38.1333 28.6064C36.7033 28.6064 35.5333 29.7764 35.5333 31.2064V34.673C35.5333 35.1497 35.9233 35.5397 36.4 35.5397Z" fill="#37405E"/>
<path d="M42.4667 35.5397H45.9333C46.41 35.5397 46.8 35.1497 46.8 34.673V31.2064C46.8 29.7764 45.63 28.6064 44.2 28.6064C42.77 28.6064 41.6 29.7764 41.6 31.2064V34.673C41.6 35.1497 41.99 35.5397 42.4667 35.5397Z" fill="#37405E"/>
<path d="M6.06667 49.4064H9.53333C10.01 49.4064 10.4 49.0164 10.4 48.5397V45.073C10.4 43.643 9.23 42.473 7.8 42.473C6.37 42.473 5.2 43.643 5.2 45.073V48.5397C5.2 49.0164 5.59 49.4064 6.06667 49.4064Z" fill="#37405E"/>
<path d="M12.1333 49.4064H15.6C16.0767 49.4064 16.4667 49.0164 16.4667 48.5397V45.073C16.4667 43.643 15.2967 42.473 13.8667 42.473C12.4367 42.473 11.2667 43.643 11.2667 45.073V48.5397C11.2667 49.0164 11.6567 49.4064 12.1333 49.4064Z" fill="#37405E"/>
<path d="M36.4 49.4064H39.8667C40.3433 49.4064 40.7333 49.0164 40.7333 48.5397V45.073C40.7333 43.643 39.5633 42.473 38.1333 42.473C36.7033 42.473 35.5333 43.643 35.5333 45.073V48.5397C35.5333 49.0164 35.9233 49.4064 36.4 49.4064Z" fill="#37405E"/>
<path d="M42.4667 49.4064H45.9333C46.41 49.4064 46.8 49.0164 46.8 48.5397V45.073C46.8 43.643 45.63 42.473 44.2 42.473C42.77 42.473 41.6 43.643 41.6 45.073V48.5397C41.6 49.0164 41.99 49.4064 42.4667 49.4064Z" fill="#37405E"/>
</svg>
