<svg width="52" height="53" viewBox="0 0 52 53" fill="none" xmlns="http://www.w3.org/2000/svg">
<path d="M30.1449 22.4512C28.7088 22.4493 27.3321 21.8429 26.3167 20.7649C25.3013 19.687 24.73 18.2256 24.7282 16.7012C24.7282 16.1707 24.9267 15.662 25.28 15.287C25.6334 14.9119 26.1126 14.7012 26.6123 14.7012C27.1119 14.7012 27.5912 14.9119 27.9445 15.287C28.2978 15.662 28.4963 16.1707 28.4963 16.7012C28.4963 17.0473 28.593 17.3856 28.7741 17.6734C28.9553 17.9612 29.2128 18.1855 29.514 18.318C29.8152 18.4504 30.1467 18.4851 30.4665 18.4175C30.7863 18.35 31.08 18.1833 31.3106 17.9386C31.5411 17.6939 31.6981 17.382 31.7617 17.0426C31.8253 16.7031 31.7927 16.3512 31.6679 16.0315C31.5431 15.7117 31.3319 15.4384 31.0607 15.2461C30.7896 15.0538 30.4709 14.9512 30.1449 14.9512C29.0735 14.9512 28.0263 14.6139 27.1355 13.9821C26.2448 13.3503 25.5505 12.4523 25.1405 11.4016C24.7306 10.3509 24.6233 9.19479 24.8323 8.0794C25.0413 6.96401 25.5572 5.93946 26.3147 5.13531C27.0722 4.33116 28.0374 3.78352 29.0881 3.56166C30.1389 3.33979 31.228 3.45366 32.2177 3.88886C33.2075 4.32407 34.0535 5.06106 34.6486 6.00664C35.2438 6.95223 35.5615 8.06393 35.5615 9.20117C35.5615 9.7316 35.363 10.2403 35.0097 10.6154C34.6564 10.9905 34.1771 11.2012 33.6775 11.2012C33.1778 11.2012 32.6986 10.9905 32.3452 10.6154C31.9919 10.2403 31.7934 9.7316 31.7934 9.20117C31.7934 8.85505 31.6967 8.51671 31.5156 8.22892C31.3344 7.94114 31.077 7.71684 30.7757 7.58438C30.4745 7.45193 30.143 7.41727 29.8232 7.4848C29.5035 7.55232 29.2097 7.71899 28.9792 7.96374C28.7486 8.20848 28.5916 8.5203 28.528 8.85976C28.4644 9.19923 28.497 9.5511 28.6218 9.87087C28.7466 10.1906 28.9579 10.464 29.229 10.6562C29.5001 10.8485 29.8188 10.9512 30.1449 10.9512C31.5814 10.9512 32.9592 11.557 33.975 12.6353C34.9908 13.7136 35.5615 15.1762 35.5615 16.7012C35.5615 18.2262 34.9908 19.6887 33.975 20.767C32.9592 21.8454 31.5814 22.4512 30.1449 22.4512Z" fill="#37405E"/>
<path d="M30.1449 24.9512C29.6452 24.9512 29.166 24.7405 28.8126 24.3654C28.4593 23.9903 28.2608 23.4816 28.2608 22.9512V20.4512C28.2608 19.9207 28.4593 19.412 28.8126 19.037C29.166 18.6619 29.6452 18.4512 30.1449 18.4512C30.6445 18.4512 31.1238 18.6619 31.4771 19.037C31.8304 19.412 32.0289 19.9207 32.0289 20.4512V22.9512C32.0289 23.4816 31.8304 23.9903 31.4771 24.3654C31.1238 24.7405 30.6445 24.9512 30.1449 24.9512Z" fill="#37405E"/>
<path d="M30.1449 7.45117C29.6452 7.45117 29.166 7.24046 28.8126 6.86539C28.4593 6.49031 28.2608 5.98161 28.2608 5.45117V2.95117C28.2608 2.42074 28.4593 1.91203 28.8126 1.53696C29.166 1.16189 29.6452 0.951172 30.1449 0.951172C30.6445 0.951172 31.1238 1.16189 31.4771 1.53696C31.8304 1.91203 32.0289 2.42074 32.0289 2.95117V5.45117C32.0289 5.98161 31.8304 6.49031 31.4771 6.86539C31.1238 7.24046 30.6445 7.45117 30.1449 7.45117Z" fill="#37405E"/>
<path d="M9.42027 26.9112L9.41311 26.9128C9.40496 26.3899 9.20369 25.8913 8.85264 25.5244C8.50159 25.1575 8.02885 24.9517 7.53622 24.9512H1.88405C1.38437 24.9512 0.905155 25.1619 0.551826 25.537C0.198498 25.912 0 26.4207 0 26.9512V50.9512C0 51.4816 0.198498 51.9903 0.551826 52.3654C0.905155 52.7405 1.38437 52.9512 1.88405 52.9512H7.53622C8.0359 52.9512 8.51511 52.7405 8.86844 52.3654C9.22177 51.9903 9.42027 51.4816 9.42027 50.9512V26.9112Z" fill="#37405E"/>
<path d="M51.7489 37.4278C51.5395 36.7665 51.2089 36.1557 50.7761 35.6306C50.3434 35.1055 49.8171 34.6764 49.2275 34.3682C48.6379 34.0599 47.9967 33.8785 47.3408 33.8344C46.6849 33.7903 46.0272 33.8843 45.4057 34.1112L28.5044 40.7244L25.4428 38.58L29.5974 38.7986C30.1516 38.8338 30.7067 38.7483 31.2286 38.5474C31.7506 38.3465 32.2283 38.0345 32.6325 37.6304C33.0367 37.2264 33.3588 36.7389 33.579 36.1979C33.7992 35.6568 33.9128 35.0737 33.913 34.4844C33.9142 33.6379 33.6808 32.8098 33.242 32.1031C32.8031 31.3963 32.1782 30.8422 31.4449 30.5098L19.583 25.1134C19.2328 24.954 18.8452 24.911 18.4715 24.9902L11.3043 26.5112V50.3912L15.1148 49.044L27.7438 52.874C27.912 52.9249 28.0859 52.9509 28.2608 52.9512C28.5097 52.9515 28.7562 52.8991 28.9858 52.797L48.9449 43.9688C50.1014 43.4525 51.0322 42.4926 51.5519 41.2804C52.0716 40.0681 52.1419 38.6926 51.7489 37.4278Z" fill="#37405E"/>
</svg>
