<svg width="52" height="52" viewBox="0 0 52 52" fill="none" xmlns="http://www.w3.org/2000/svg">
<path fill-rule="evenodd" clip-rule="evenodd" d="M37.2335 1.73485C37.6094 1.73485 37.9148 2.04026 37.9148 2.41607V3.36978C37.9148 3.74672 37.6094 4.051 37.2335 4.051C36.8577 4.051 36.5523 3.74672 36.5523 3.36978V2.41607C36.5523 2.04026 36.8577 1.73485 37.2335 1.73485ZM25.9994 42.3471C19.2254 42.3471 13.6764 37.0176 13.3199 30.3314H3.64819V32.8213C3.64819 33.062 3.80601 33.2573 4.04219 33.3072L8.20586 34.2019C8.85534 34.3416 9.35153 34.7798 9.5684 35.4043C9.78186 36.0106 10.0317 36.6123 10.3144 37.1936C10.6017 37.7908 10.5596 38.4539 10.1986 39.0102L7.88453 42.59C7.75509 42.7921 7.78234 43.0419 7.94925 43.2111L12.4365 47.6958C12.6034 47.8661 12.8532 47.8922 13.0576 47.7628L16.6365 45.4489C17.1929 45.089 17.856 45.047 18.4544 45.3354C19.0335 45.6158 19.6364 45.8656 20.2439 46.0779C20.8649 46.297 21.3055 46.7943 21.4452 47.4426L22.3399 51.6072C22.391 51.8422 22.5851 52 22.827 52H29.1696C29.4103 52 29.6056 51.8422 29.6567 51.6072L30.5514 47.4426C30.69 46.7943 31.126 46.297 31.7527 46.0779C32.3602 45.8656 32.9631 45.6158 33.5422 45.3354C34.1406 45.047 34.8037 45.089 35.36 45.4489L38.939 47.7628C39.1433 47.8922 39.3931 47.8661 39.5601 47.6969L44.0473 43.2111C44.2143 43.0419 44.2415 42.7921 44.1121 42.59L41.798 39.0102C41.437 38.4539 41.3949 37.7908 41.6822 37.1936C41.9649 36.6112 42.2159 36.0094 42.4282 35.4043C42.6462 34.7798 43.1424 34.3416 43.7907 34.2019L47.959 33.3072C48.1906 33.2573 48.3484 33.062 48.3484 32.8213V30.3314H38.6778C38.3224 37.0176 32.7735 42.3471 25.9994 42.3471ZM34.1826 30.3314C33.8351 34.5425 30.2971 37.8635 25.9994 37.8635C21.6972 37.8635 18.1637 34.5425 17.8163 30.3314H34.1826ZM50.9985 26.9662H1.00146C0.449636 26.9662 0 27.4158 0 27.9676C0 28.5194 0.449636 28.969 1.00146 28.969H50.9985C51.5504 28.969 52 28.5194 52 27.9676C52 27.4158 51.5504 26.9662 50.9985 26.9662ZM16.2176 22.7892H13.3154V25.6038H16.2176V22.7892ZM20.7798 1.29886H25.5271V0H20.7798V1.29886ZM25.6565 9.39633C26.0324 9.39633 26.3378 9.70061 26.3378 10.0776C26.3378 10.4534 26.0324 10.7588 25.6565 10.7588H22.7634V12.178H29.2355V2.66131H17.0703V6.1276H22.0821C22.4341 6.1276 22.7271 6.39555 22.7589 6.73843H25.6565C26.0324 6.73843 26.3378 7.04384 26.3378 7.41965C26.3378 7.79546 26.0324 8.10087 25.6565 8.10087H22.7634V9.39633H25.6565ZM25.6565 5.44297H20.6492C20.2734 5.44297 19.9679 5.13869 19.9679 4.76175C19.9679 4.38594 20.2734 4.08052 20.6492 4.08052H25.6565C26.0324 4.08052 26.3378 4.38594 26.3378 4.76175C26.3378 5.13869 26.0324 5.44297 25.6565 5.44297ZM21.4009 25.6038H17.5801V22.1079C17.5801 21.7321 17.2747 21.4267 16.8988 21.4267H12.633C12.2571 21.4267 11.9517 21.7321 11.9517 22.1079V25.6038H8.13093V7.49004H21.3997V25.6038H21.4009ZM19.5319 15.6409C19.5319 15.2639 19.2265 14.9597 18.8507 14.9597C18.4748 14.9597 18.1694 15.2639 18.1694 15.6409V16.5946C18.1694 16.9704 18.4748 17.2758 18.8507 17.2758C19.2265 17.2758 19.5319 16.9704 19.5319 16.5946V15.6409ZM18.1694 18.9584V19.9121C18.1694 20.2891 18.4748 20.5934 18.8507 20.5934C19.2265 20.5934 19.5319 20.2891 19.5319 19.9121V18.9584C19.5319 18.5826 19.2265 18.2772 18.8507 18.2772C18.4748 18.2772 18.1694 18.5826 18.1694 18.9584ZM14.8641 18.2772C14.4883 18.2772 14.1828 18.5826 14.1828 18.9584V19.9121C14.1828 20.2891 14.4883 20.5934 14.8641 20.5934C15.2399 20.5934 15.5454 20.2891 15.5454 19.9121V18.9584C15.5454 18.5826 15.2388 18.2772 14.8641 18.2772ZM11.5532 18.9584C11.5532 18.5826 11.2477 18.2772 10.8719 18.2772C10.4961 18.2772 10.1906 18.5826 10.1906 18.9584V19.9121C10.1906 20.2891 10.4961 20.5934 10.8719 20.5934C11.2477 20.5934 11.5532 20.2891 11.5532 19.9121V18.9584ZM15.5454 15.6409C15.5454 15.2639 15.2399 14.9597 14.8641 14.9597C14.4883 14.9597 14.1828 15.2639 14.1828 15.6409V16.5946C14.1828 16.9704 14.4883 17.2758 14.8641 17.2758C15.2399 17.2758 15.5454 16.9704 15.5454 16.5946V15.6409ZM11.5532 15.6409C11.5532 15.2639 11.2477 14.9597 10.8719 14.9597C10.4961 14.9597 10.1906 15.2639 10.1906 15.6409V16.5946C10.1906 16.9704 10.4961 17.2758 10.8719 17.2758C11.2477 17.2758 11.5532 16.9704 11.5532 16.5946V15.6409ZM19.5319 13.2759C19.5319 13.6528 19.2265 13.9571 18.8507 13.9571C18.4748 13.9571 18.1694 13.6528 18.1694 13.2759V12.3222C18.1694 11.9464 18.4748 11.641 18.8507 11.641C19.2265 11.641 19.5319 11.9464 19.5319 12.3222V13.2759ZM15.5454 12.3222C15.5454 11.9464 15.2399 11.641 14.8641 11.641C14.4883 11.641 14.1828 11.9464 14.1828 12.3222V13.2759C14.1828 13.6528 14.4883 13.9571 14.8641 13.9571C15.2399 13.9571 15.5454 13.6528 15.5454 13.2759V12.3222ZM11.5532 12.3222C11.5532 11.9464 11.2477 11.641 10.8719 11.641C10.4961 11.641 10.1906 11.9464 10.1906 12.3222V13.2759C10.1906 13.6528 10.4961 13.9571 10.8719 13.9571C11.2477 13.9571 11.5532 13.6528 11.5532 13.2759V12.3222ZM18.8507 10.6396C18.4748 10.6396 18.1694 10.3341 18.1694 9.95834V9.00463C18.1694 8.62882 18.4748 8.32341 18.8507 8.32341C19.2265 8.32341 19.5319 8.62882 19.5319 9.00463V9.95834C19.5319 10.3341 19.2265 10.6396 18.8507 10.6396ZM15.5454 9.95834V9.00463C15.5454 8.62882 15.2399 8.32341 14.8641 8.32341C14.4883 8.32341 14.1828 8.62882 14.1828 9.00463V9.95834C14.1828 10.3341 14.4883 10.6396 14.8641 10.6396C15.2388 10.6396 15.5454 10.3341 15.5454 9.95834ZM11.5532 9.00463C11.5532 8.62882 11.2477 8.32341 10.8719 8.32341C10.4961 8.32341 10.1906 8.62882 10.1906 9.00463V9.95834C10.1906 10.3341 10.4961 10.6396 10.8719 10.6396C11.2477 10.6396 11.5532 10.3341 11.5532 9.95834V9.00463ZM36.5523 13.5404H22.7634V25.6038H36.5511V13.5404H36.5523ZM33.8908 15.9417C33.8908 15.5659 34.1917 15.2594 34.5675 15.2583H34.572C34.9479 15.2583 35.2488 15.5614 35.2533 15.9372L35.2806 23.2024C35.2806 23.5783 34.9751 23.8848 34.5993 23.8859C34.2235 23.8859 33.918 23.5828 33.918 23.2081L33.8908 15.9417ZM31.9389 15.9372L31.9662 23.2024C31.9662 23.5783 31.6653 23.8848 31.2895 23.8859H31.2849C30.9091 23.8859 30.6082 23.5828 30.6037 23.2081L30.5764 15.9417C30.5764 15.5659 30.8818 15.2594 31.2577 15.2583C31.6324 15.2583 31.9389 15.5614 31.9389 15.9372ZM28.6836 15.9417L28.6564 23.2081C28.6518 23.5828 28.3509 23.8859 27.9751 23.8859H27.9706C27.5947 23.8848 27.2893 23.5783 27.2938 23.2024L27.3211 15.9372C27.3211 15.5614 27.6265 15.2583 28.0024 15.2583C28.3782 15.2594 28.6836 15.5659 28.6836 15.9417ZM25.4249 15.9417L25.3976 23.2081C25.3976 23.5828 25.0922 23.8859 24.7164 23.8859C24.7164 23.8859 24.7164 23.8859 24.7118 23.8859C24.336 23.8848 24.0351 23.5783 24.0351 23.2024L24.0624 15.9372C24.0624 15.5614 24.3678 15.2583 24.7436 15.2583H24.7482C25.124 15.2594 25.4249 15.5659 25.4249 15.9417ZM33.2368 1.73485C33.6126 1.73485 33.918 2.04026 33.918 2.41607V3.36978C33.918 3.74672 33.6126 4.051 33.2368 4.051C32.8609 4.051 32.5555 3.74672 32.5555 3.36978V2.41607C32.5555 2.04026 32.8609 1.73485 33.2368 1.73485ZM30.5991 0.0908296V12.178H37.2335C37.6094 12.178 37.9148 12.4834 37.9148 12.8592V25.6038H43.8679V0.0908296H30.5991ZM40.5434 23.2785V22.3248C40.5434 21.949 40.8488 21.6436 41.2246 21.6436C41.605 21.6436 41.9059 21.949 41.9059 22.3248V23.2785C41.9059 23.6543 41.605 23.9597 41.2246 23.9597C40.8499 23.9597 40.5434 23.6543 40.5434 23.2785ZM40.5434 19.961V19.0072C40.5434 18.6303 40.8488 18.326 41.2246 18.326C41.605 18.326 41.9059 18.6303 41.9059 19.0072V19.961C41.9059 20.3368 41.605 20.6422 41.2246 20.6422C40.8499 20.6422 40.5434 20.3368 40.5434 19.961ZM40.5434 16.6423V15.6886C40.5434 15.3127 40.8488 15.0073 41.2246 15.0073C41.605 15.0073 41.9059 15.3127 41.9059 15.6886V16.6423C41.9059 17.0181 41.605 17.3235 41.2246 17.3235C40.8499 17.3235 40.5434 17.0181 40.5434 16.6423ZM40.5434 13.3247V12.371C40.5434 11.9941 40.8488 11.6898 41.2246 11.6898C41.605 11.6898 41.9059 11.9941 41.9059 12.371V13.3247C41.9059 13.7005 41.605 14.0059 41.2246 14.0059C40.8499 14.0059 40.5434 13.7005 40.5434 13.3247ZM40.5434 10.006V9.05231C40.5434 8.67651 40.8488 8.37109 41.2246 8.37109C41.605 8.37109 41.9059 8.67651 41.9059 9.05231V10.006C41.9059 10.383 41.605 10.6872 41.2246 10.6872C40.8499 10.6872 40.5434 10.383 40.5434 10.006ZM37.9148 5.73476V6.68847C37.9148 7.06428 37.6094 7.36969 37.2335 7.36969C36.8577 7.36969 36.5523 7.06428 36.5523 6.68847V5.73476C36.5523 5.35782 36.8577 5.05354 37.2335 5.05354C37.6094 5.05354 37.9148 5.35782 37.9148 5.73476ZM36.5523 9.05231C36.5523 8.67651 36.8577 8.37109 37.2335 8.37109C37.6094 8.37109 37.9148 8.67651 37.9148 9.05231V10.006C37.9148 10.383 37.6094 10.6872 37.2335 10.6872C36.8577 10.6872 36.5523 10.383 36.5523 10.006V9.05231ZM33.2368 8.37109C33.6126 8.37109 33.918 8.67651 33.918 9.05231V10.006C33.918 10.383 33.6126 10.6872 33.2368 10.6872C32.8609 10.6872 32.5555 10.383 32.5555 10.006V9.05231C32.5555 8.67651 32.8609 8.37109 33.2368 8.37109ZM40.5434 6.68847V5.73476C40.5434 5.35782 40.8488 5.05354 41.2246 5.05354C41.605 5.05354 41.9059 5.35782 41.9059 5.73476V6.68847C41.9059 7.06428 41.605 7.36969 41.2246 7.36969C40.8499 7.36969 40.5434 7.06428 40.5434 6.68847ZM33.2368 5.05354C33.6126 5.05354 33.918 5.35782 33.918 5.73476V6.68847C33.918 7.06428 33.6126 7.36969 33.2368 7.36969C32.8609 7.36969 32.5555 7.06428 32.5555 6.68847V5.73476C32.5555 5.35782 32.8609 5.05354 33.2368 5.05354ZM40.5434 3.36978V2.41607C40.5434 2.04026 40.8488 1.73485 41.2246 1.73485C41.605 1.73485 41.9059 2.04026 41.9059 2.41607V3.36978C41.9059 3.74672 41.605 4.051 41.2246 4.051C40.8499 4.051 40.5434 3.74672 40.5434 3.36978Z" fill="#37405E"/>
</svg>
