<svg width="52" height="53" viewBox="0 0 52 53" fill="none" xmlns="http://www.w3.org/2000/svg">
<path d="M51.4731 46.9781H49.7637V33.983C49.7637 33.7846 49.6521 33.6032 49.475 33.5136L40.0962 28.7666C39.7459 28.5892 39.3312 28.8435 39.3312 29.236V32.2366C39.3312 32.6258 38.9229 32.8803 38.5729 32.7093L30.4666 28.7498C30.1165 28.5788 29.7081 28.8333 29.7081 29.2225V32.2364C29.7081 32.6257 29.2998 32.8802 28.9498 32.7092L20.8434 28.7497C20.4934 28.5787 20.0851 28.8332 20.0851 29.2224V46.978H18.6256V11.7467C18.6256 11.456 18.3897 11.2204 18.0988 11.2204H16.8499C16.5589 11.2204 16.323 10.9848 16.323 10.6942V3.93397C16.323 3.64332 16.0871 3.40771 15.7962 3.40771H4.5905C4.29951 3.40771 4.06364 3.64332 4.06364 3.93397V10.6941C4.06364 10.9848 3.82776 11.2204 3.53677 11.2204H2.28795C1.99697 11.2204 1.76109 11.456 1.76109 11.7466V46.9781H0.526862C0.235876 46.9781 0 47.2137 0 47.5043V48.8815C0 49.1721 0.235876 49.4077 0.526862 49.4077H51.4731C51.764 49.4077 52 49.1721 52 48.8815V47.5043C52 47.2137 51.764 46.9781 51.4731 46.9781ZM3.48804 41.4169V14.9915C3.48804 14.7008 3.72392 14.4652 4.0149 14.4652H5.08949C5.38048 14.4652 5.61635 14.7008 5.61635 14.9915V41.4169C5.61635 41.7076 5.38048 41.9432 5.08949 41.9432H4.0149C3.72392 41.9432 3.48804 41.7076 3.48804 41.4169ZM8.62 46.9781H4.16843V45.586C4.16843 45.2954 4.40431 45.0598 4.69529 45.0598H8.09313C8.38412 45.0598 8.62 45.2954 8.62 45.586V46.9781ZM9.37715 41.4169C9.37715 41.7076 9.14127 41.9432 8.85029 41.9432H7.7757C7.48471 41.9432 7.24884 41.7076 7.24884 41.4169V14.9915C7.24884 14.7008 7.48471 14.4652 7.7757 14.4652H8.85029C9.14127 14.4652 9.37715 14.7008 9.37715 14.9915V41.4169ZM11.0096 41.4169V14.9915C11.0096 14.7008 11.2455 14.4652 11.5365 14.4652H12.6111C12.9021 14.4652 13.1379 14.7008 13.1379 14.9915V41.4169C13.1379 41.7076 12.9021 41.9432 12.6111 41.9432H11.5365C11.2455 41.9432 11.0096 41.7076 11.0096 41.4169ZM16.2184 46.9781H11.7668V45.586C11.7668 45.2954 12.0027 45.0598 12.2936 45.0598H15.6915C15.9825 45.0598 16.2184 45.2954 16.2184 45.586V46.9781ZM16.8987 41.4169C16.8987 41.7076 16.6629 41.9432 16.3719 41.9432H15.2973C15.0063 41.9432 14.7704 41.7076 14.7704 41.4169V14.9915C14.7704 14.7008 15.0063 14.4652 15.2973 14.4652H16.3719C16.6629 14.4652 16.8987 14.7008 16.8987 14.9915V41.4169ZM26.9659 43.7424C26.9659 44.033 26.73 44.2686 26.439 44.2686H25.0356C24.7446 44.2686 24.5087 44.033 24.5087 43.7424V39.4284C24.5087 39.1378 24.7446 38.9022 25.0356 38.9022H26.439C26.73 38.9022 26.9659 39.1378 26.9659 39.4284V43.7424ZM36.2042 43.7424C36.2042 44.033 35.9683 44.2686 35.6773 44.2686H34.2738C33.9828 44.2686 33.747 44.033 33.747 43.7424V39.4284C33.747 39.1378 33.9828 38.9022 34.2738 38.9022H35.6773C35.9683 38.9022 36.2042 39.1378 36.2042 39.4284V43.7424ZM45.4425 43.7424C45.4425 44.033 45.2065 44.2686 44.9157 44.2686H43.512C43.2212 44.2686 42.9852 44.033 42.9852 43.7424V39.4284C42.9852 39.1378 43.2212 38.9022 43.512 38.9022H44.9157C45.2065 38.9022 45.4425 39.1378 45.4425 39.4284V43.7424Z" fill="#37405E"/>
</svg>
