<svg width="52" height="53" viewBox="0 0 52 53" fill="none" xmlns="http://www.w3.org/2000/svg">
<path d="M50.4766 49.7007H1.52347C0.682124 49.7007 3.0911e-05 50.3828 3.0911e-05 51.2241C3.0911e-05 52.0655 0.682124 52.7476 1.52347 52.7476H50.4766C51.3179 52.7476 52 52.0655 52 51.2241C52 50.3828 51.3179 49.7007 50.4766 49.7007Z" fill="#37405E"/>
<path d="M18.9438 30.5457L10.8188 20.7957C10.5294 20.4483 10.1006 20.2476 9.64846 20.2476C9.19631 20.2476 8.76751 20.4485 8.47816 20.7957L0.353164 30.5457C-0.0252582 30.9998 -0.106914 31.6318 0.143843 32.1671C0.394601 32.7025 0.932374 33.0444 1.52347 33.0444H4.87503V44.7241C4.87503 45.5655 5.55712 46.2476 6.39846 46.2476H12.8985C13.7398 46.2476 14.4219 45.5655 14.4219 44.7241V33.0444H17.7735C18.3647 33.0444 18.9024 32.7025 19.1531 32.1671C19.4037 31.6318 19.3222 30.9998 18.9438 30.5457Z" fill="#37405E"/>
<path d="M35.2953 20.7957L27.1703 11.0457C26.881 10.6983 26.4522 10.4976 26 10.4976C25.5479 10.4976 25.1191 10.6984 24.8297 11.0457L16.7047 20.7957C16.3263 21.2498 16.2446 21.8818 16.4954 22.4171C16.7462 22.9525 17.2839 23.2944 17.875 23.2944H21.2266V44.7241C21.2266 45.5655 21.9087 46.2476 22.75 46.2476H29.25C30.0914 46.2476 30.7735 45.5656 30.7735 44.7241V23.2944H34.125C34.7162 23.2944 35.254 22.9525 35.5046 22.4171C35.7553 21.8818 35.6737 21.2498 35.2953 20.7957Z" fill="#37405E"/>
<path d="M51.6469 11.0457L43.5219 1.29569C43.2325 0.948348 42.8037 0.747559 42.3516 0.747559C41.8994 0.747559 41.4706 0.948449 41.1813 1.29569L33.0563 11.0457C32.6778 11.4998 32.5962 12.1318 32.8469 12.6671C33.0977 13.2025 33.6355 13.5444 34.2266 13.5444H37.5781V44.7241C37.5781 45.5655 38.2602 46.2476 39.1016 46.2476H45.6016C46.4429 46.2476 47.125 45.5655 47.125 44.7241V13.5444H50.4766C51.0678 13.5444 51.6054 13.2025 51.8562 12.6671C52.1068 12.1318 52.0253 11.4998 51.6469 11.0457Z" fill="#37405E"/>
</svg>
