<svg width="34" height="34" viewBox="0 0 34 34" fill="none" xmlns="http://www.w3.org/2000/svg">
<path d="M14.2936 27.256C14.2936 28.8937 14.2855 30.5315 14.2966 32.1691C14.3035 33.1821 14.2879 33.2167 13.3193 32.9904C10.6306 32.3625 8.19281 31.2355 6.08184 29.4537C2.25765 26.2257 0.162131 22.1237 0.00817105 17.1853C-0.30386 7.17328 8.36428 -0.841553 18.5544 0.0708995C27.6295 0.883598 34.6428 8.5123 33.9532 17.9775C33.447 24.924 28.4025 30.8638 21.6772 32.7218C21.5317 32.762 21.3875 32.8064 21.2423 32.8474C19.5019 33.339 19.5807 33.5881 19.5707 31.6637C19.5543 28.4877 19.5978 25.3114 19.5793 22.1354C19.5754 21.475 19.7764 21.2785 20.4486 21.3458C21.2727 21.4284 22.1097 21.3799 22.9405 21.406C23.3802 21.4199 23.6668 21.3015 23.7186 20.8141C23.8493 19.5809 23.9939 18.3489 24.1451 17.1178C24.2048 16.6323 23.9664 16.5187 23.5278 16.5361C22.4455 16.5788 21.3611 16.5772 20.2795 16.6309C19.7617 16.6565 19.5339 16.4863 19.5518 15.9638C19.5857 14.9724 19.5612 13.9783 19.6209 12.9887C19.6839 11.944 20.3767 11.2209 21.428 10.9724C22.202 10.7894 22.9834 10.8517 23.761 10.8926C24.2844 10.9202 24.4917 10.732 24.4787 10.2128C24.4544 9.24567 24.4579 8.27738 24.4733 7.30991C24.4803 6.87102 24.2787 6.67613 23.8546 6.63967C22.323 6.50791 20.7912 6.35281 19.2557 6.57468C16.489 6.9745 14.5569 9.07128 14.3512 11.9083C14.256 13.221 14.234 14.5378 14.317 15.851C14.3572 16.4865 14.1389 16.6712 13.4979 16.6164C12.571 16.5372 11.6343 16.5783 10.7039 16.5275C10.1985 16.5 9.95205 16.6479 9.95221 17.1762C9.95263 18.3671 9.93421 19.5582 9.90668 20.7487C9.89566 21.226 10.1005 21.4182 10.5833 21.4042C11.6157 21.3743 12.6504 21.3979 13.6812 21.344C14.1964 21.317 14.3251 21.4834 14.3176 21.9706C14.2907 23.732 14.307 25.494 14.307 27.2557C14.3027 27.256 14.2982 27.256 14.2936 27.256Z" fill="white"/>
</svg>
