<svg width="35" height="34" viewBox="0 0 35 34" fill="none" xmlns="http://www.w3.org/2000/svg">
<path d="M21.2788 8.35165H12.8128C10.5191 8.35165 8.65969 10.1672 8.65969 12.4067V20.7908C8.65969 23.0303 10.5191 24.8458 12.8128 24.8458H21.2788C23.5724 24.8458 25.4318 23.0303 25.4318 20.7908V12.4067C25.4318 10.1672 23.5724 8.35165 21.2788 8.35165ZM17.0458 21.7389C14.1383 21.7389 11.7813 19.4376 11.7813 16.5987C11.7813 13.7598 14.1383 11.4585 17.0458 11.4585C19.9533 11.4585 22.3103 13.7598 22.3103 16.5987C22.3103 19.4376 19.9533 21.7389 17.0458 21.7389ZM22.6716 12.299C21.9878 12.299 21.4335 11.7577 21.4335 11.0901C21.4335 10.4224 21.9878 9.88115 22.6716 9.88115C23.3554 9.88115 23.9097 10.4224 23.9097 11.0901C23.9097 11.7577 23.3554 12.299 22.6716 12.299Z" fill="white"/>
<path d="M17.6754 19.9815C19.5917 19.6438 20.8648 17.8533 20.519 15.9822C20.1731 14.1112 18.3393 12.8681 16.4231 13.2058C14.5068 13.5435 13.2337 15.334 13.5795 17.205C13.9253 19.0761 15.7591 20.3191 17.6754 19.9815Z" fill="white"/>
<path d="M16.8056 3.64684e-05C7.6045 0.0181641 -0.0170261 7.50563 0.00195243 16.5082C-0.141954 25.861 7.68841 33.2181 17.1513 33.1974C26.391 33.1771 34.0974 25.6318 34.0917 16.601C34.0858 7.33675 26.4266 -0.0188969 16.8056 3.64684e-05ZM27.2845 21.7168C27.2845 24.4511 25.0143 26.6676 22.214 26.6676H11.8777C9.07739 26.6676 6.80723 24.451 6.80723 21.7168V11.4806C6.80723 8.74628 9.07739 6.52979 11.8777 6.52979H22.214C25.0143 6.52979 27.2845 8.74636 27.2845 11.4806V21.7168Z" fill="white"/>
</svg>
