<svg width="35" height="34" viewBox="0 0 35 34" fill="none" xmlns="http://www.w3.org/2000/svg">
<path d="M34.0914 16.7131C34.032 25.9262 26.3951 33.3356 16.9189 33.1955C7.49302 33.056 -0.00787368 25.6624 0.0927985 16.3352C0.190345 7.29782 7.93923 -0.0620708 17.3118 0.000394705C26.6531 0.062699 34.1507 7.53027 34.0914 16.7131ZM14.2822 19.542C14.281 19.542 14.2798 19.5421 14.2788 19.5421C14.2788 21.2928 14.3024 23.044 14.2657 24.7939C14.2532 25.3892 14.4902 25.5916 15.0513 25.5848C15.8321 25.5753 16.6166 25.5439 17.393 25.6034C18.0384 25.653 18.1528 25.3742 18.1469 24.8306C18.1272 23.0062 18.1426 21.1814 18.1459 19.3569C18.1469 18.8086 18.2398 18.2751 18.4575 17.769C18.8561 16.8425 19.8319 16.29 20.8276 16.4164C21.6982 16.527 22.2562 17.1587 22.3993 18.2329C22.448 18.5984 22.4582 18.9709 22.4571 19.34C22.4516 21.14 22.4425 22.94 22.42 24.7398C22.4146 25.1673 22.421 25.5604 22.9965 25.573C23.9533 25.5941 24.9105 25.6013 25.8676 25.6099C26.2518 25.6133 26.3871 25.4098 26.3842 25.0455C26.3631 22.4072 26.4455 19.7642 26.3059 17.1322C26.2159 15.4352 25.3284 14.0414 23.6086 13.4365C21.9764 12.8623 20.386 12.9817 19.0302 14.2117C18.8841 14.3442 18.7197 14.4665 18.5441 14.5568C18.1803 14.7439 18.0145 14.6425 17.9992 14.2171C17.9971 13.5879 17.8062 13.5879 17.2882 13.5754C16.5585 13.5578 15.825 13.6269 15.0987 13.5757C14.4612 13.5308 14.2603 13.7527 14.2712 14.3651C14.3021 16.0902 14.2822 17.8163 14.2822 19.542ZM8.14377 19.559C8.14377 21.3362 8.1552 23.1135 8.13628 24.8905C8.1311 25.3792 8.27183 25.631 8.81475 25.616C9.69679 25.5916 10.5803 25.5834 11.4622 25.6051C11.9422 25.6168 12.0633 25.4036 12.0618 24.9804C12.0479 21.3767 12.0428 17.7728 12.0453 14.1691C12.0456 13.7214 11.8631 13.5698 11.4084 13.5839C10.5268 13.611 9.64251 13.6126 8.7613 13.5773C8.24445 13.5567 8.12896 13.7569 8.13562 14.2279C8.16087 16.0045 8.14575 17.7819 8.14377 19.559ZM12.3066 9.66297C12.2881 8.52988 11.2309 7.62651 9.95595 7.65424C8.82314 7.6789 7.85902 8.64941 7.86215 9.76194C7.8656 11.0071 8.89594 11.976 10.2086 11.9687C11.2988 11.9627 12.3258 10.8341 12.3066 9.66297Z" fill="white"/>
</svg>
