<svg width="35" height="34" viewBox="0 0 35 34" fill="none" xmlns="http://www.w3.org/2000/svg">
<path d="M17.0918 0C7.70294 0 0.0917969 7.43148 0.0917969 16.5987C0.0917969 25.7659 7.70294 33.1974 17.0918 33.1974C26.4807 33.1974 34.0918 25.7659 34.0918 16.5987C34.0918 7.43148 26.4806 0 17.0918 0ZM25.4567 8.71764C24.8644 9.27531 24.3357 9.89107 23.7717 10.4746C22.46 11.8316 21.153 13.1929 19.8449 14.5534C19.6024 14.8056 19.368 15.0656 19.1047 15.298C19.0092 15.3822 19.0391 15.4635 19.0972 15.5514C19.3986 16.006 19.6967 16.4628 19.9996 16.9165C20.5435 17.7315 21.0901 18.545 21.6356 19.3591C22.2825 20.3244 22.9359 21.2855 23.5744 22.256C24.1352 23.1083 24.708 23.9527 25.2801 24.7978C25.2971 24.8229 25.3153 24.8475 25.3289 24.8744C25.3511 24.9181 25.3995 24.9613 25.3728 25.0113C25.3437 25.0656 25.2801 25.0388 25.2321 25.0388C23.6845 25.0395 22.1371 25.0376 20.5896 25.0409C20.4569 25.0412 20.3719 25.0031 20.2985 24.8917C19.6344 23.884 18.9663 22.8789 18.297 21.8745C17.5774 20.7944 16.8554 19.7156 16.1342 18.6365C16.039 18.4939 16.05 18.5043 15.937 18.6268C15.6825 18.9025 15.4136 19.1652 15.1539 19.4365C14.5434 20.074 13.9357 20.7138 13.3256 21.3516C12.3437 22.3779 11.359 23.4015 10.3808 24.431C10.2584 24.5598 10.1282 24.6191 9.9502 24.6171C9.56489 24.6129 8.98623 24.4068 8.60108 24.4359C8.56232 24.4388 8.50769 24.4521 8.49389 24.404C8.47679 24.3444 8.52671 24.302 8.56489 24.2632C8.81047 24.0133 14.1411 18.4168 15.1129 17.3739C15.1823 17.2993 15.1997 17.2403 15.1393 17.1505C14.1951 15.746 13.4429 14.6224 12.5022 13.2157C11.7779 12.1326 11.057 11.0471 10.3339 9.96312C9.9612 9.40448 9.58696 8.8468 9.21305 8.28881C9.1909 8.25581 9.15174 8.22516 9.16538 8.18393C9.17885 8.14359 9.22387 8.15254 9.25973 8.15464C10.0612 8.20297 10.8635 8.15891 11.413 8.17287C12.4466 8.17287 13.2281 8.17521 14.0095 8.17069C14.1392 8.16988 14.2044 8.21588 14.2734 8.32552C14.5553 8.77436 14.8529 9.21375 15.1478 9.65475C16.018 10.9565 17.9382 13.8111 18.1271 14.0493C18.2513 14.2059 18.2461 14.1982 18.375 14.053C18.8262 13.5448 22.9362 9.31467 23.6013 8.61702C23.6597 8.5557 23.7186 8.53134 23.8017 8.53037C24.2331 8.52537 24.9277 8.56151 25.3789 8.60193C25.4178 8.6054 25.4659 8.58814 25.4919 8.62961C25.5163 8.66858 25.4825 8.69327 25.4567 8.71764Z" fill="white"/>
<path d="M17.2987 15.3852C16.7666 14.5881 16.236 13.7902 15.7043 12.9928C15.1844 12.2131 14.6632 11.4343 14.1454 10.6533C14.0924 10.5734 14.0312 10.5355 13.9337 10.5371C13.7083 10.5407 13.4828 10.5383 13.2573 10.5383C13.2573 10.5381 13.2573 10.5385 13.2573 10.5383C13.0361 10.5383 12.815 10.5368 12.5939 10.5383C12.557 10.5385 12.5082 10.5166 12.4853 10.5531C12.4615 10.5912 12.5038 10.6227 12.5241 10.6532C12.7983 11.0642 13.0734 11.4748 13.3483 11.8854C14.0903 12.9936 14.8327 14.1015 15.574 15.2101C16.1897 16.1309 16.8042 17.0527 17.4189 17.9742C17.9769 18.8106 18.5336 19.6477 19.0923 20.4834C19.5967 21.2377 20.1053 21.9893 20.6061 22.7456C20.6693 22.841 20.7384 22.8766 20.8493 22.8741C21.2913 22.8641 21.7334 22.8586 22.1754 22.8767C22.2087 22.878 22.2506 22.8895 22.2703 22.8542C22.2903 22.8185 22.2547 22.791 22.2371 22.7647C21.8204 22.1417 21.4022 21.5198 20.9853 20.8971C20.3265 19.9132 19.6685 18.9288 19.0103 17.9446C18.4397 17.0915 17.8686 16.2387 17.2987 15.3852Z" fill="white"/>
</svg>
