<svg width="48" height="48" viewBox="0 0 48 48" fill="none" xmlns="http://www.w3.org/2000/svg">
<path d="M48 24C48 37.2548 37.2548 48 24 48C10.7452 48 0 37.2548 0 24C0 10.7452 10.7452 0 24 0C37.2548 0 48 10.7452 48 24Z" fill="#D3AC4A"/>
<path fill-rule="evenodd" clip-rule="evenodd" d="M23.5101 21.9295C25.5352 21.9295 27.1768 20.4642 27.1768 18.6567C27.1768 16.8493 25.5352 15.384 23.5101 15.384C21.4851 15.384 19.8435 16.8493 19.8435 18.6567C19.8435 20.4642 21.4851 21.9295 23.5101 21.9295ZM23.5101 19.7477C24.1851 19.7477 24.7324 19.2592 24.7324 18.6567C24.7324 18.0543 24.1851 17.5658 23.5101 17.5658C22.8351 17.5658 22.2879 18.0543 22.2879 18.6567C22.2879 19.2592 22.8351 19.7477 23.5101 19.7477Z" fill="white"/>
<path fill-rule="evenodd" clip-rule="evenodd" d="M25.2474 30.9576C27.7483 28.1022 32.0657 22.5554 32.0657 18.2931C32.0657 14.2765 28.2352 11.0204 23.5101 11.0204C18.785 11.0204 14.9546 14.2765 14.9546 18.2931C14.9546 22.5554 19.272 28.1022 21.7729 30.9576C22.6711 31.9832 24.3492 31.9832 25.2474 30.9576ZM27.4487 24.1077C28.7899 21.9143 29.6212 19.8604 29.6212 18.2931C29.6212 15.5806 26.999 13.2022 23.5101 13.2022C20.0213 13.2022 17.399 15.5806 17.399 18.2931C17.399 19.8604 18.2304 21.9143 19.5716 24.1077C20.8079 26.1296 22.3261 28.03 23.5101 29.3973C24.6942 28.03 26.2123 26.1296 27.4487 24.1077Z" fill="white"/>
<path fill-rule="evenodd" clip-rule="evenodd" d="M16.7247 29.565C17.0795 29.4242 17.4725 29.2926 17.8992 29.1729C17.4669 28.5561 17.0355 27.9147 16.6157 27.2564C14.1121 28.0562 12.5101 29.2823 12.5101 30.6567C12.5101 33.0668 17.435 35.0204 23.5101 35.0204C29.5853 35.0204 34.5101 33.0668 34.5101 30.6567C34.5101 29.2823 32.9082 28.0562 30.4046 27.2564C29.9847 27.9147 29.5534 28.5561 29.1211 29.1729C29.5478 29.2926 29.9407 29.4242 30.2955 29.565C31.1042 29.8858 31.6071 30.2112 31.8749 30.4623C31.9702 30.5517 32.0209 30.6164 32.0471 30.6567C32.0209 30.6972 31.9702 30.7618 31.8749 30.8511C31.6071 31.1024 31.1042 31.4278 30.2955 31.7485C28.6845 32.3877 26.2875 32.8386 23.5101 32.8386C20.7327 32.8386 18.3358 32.3877 16.7247 31.7485C15.9161 31.4278 15.4131 31.1024 15.1453 30.8511C15.0501 30.7618 14.9993 30.6972 14.9731 30.6567C14.9993 30.6164 15.0501 30.5517 15.1453 30.4623C15.4131 30.2112 15.9161 29.8858 16.7247 29.565ZM32.073 30.6059C32.073 30.6059 32.0725 30.6096 32.0694 30.617C32.0709 30.6096 32.073 30.6059 32.073 30.6059ZM14.9473 30.6059C14.9473 30.6059 14.9493 30.6096 14.9509 30.617C14.9477 30.6096 14.9473 30.6059 14.9473 30.6059ZM14.9473 30.7076C14.9473 30.7076 14.9477 30.704 14.9509 30.6966C14.9493 30.7039 14.9473 30.7076 14.9473 30.7076ZM32.0694 30.6966C32.0725 30.704 32.073 30.7076 32.073 30.7076C32.073 30.7076 32.0709 30.7039 32.0694 30.6966Z" fill="white"/>
</svg>
