<svg width="48" height="48" viewBox="0 0 48 48" fill="none" xmlns="http://www.w3.org/2000/svg">
<path d="M48 24C48 37.2548 37.2548 48 24 48C10.7452 48 0 37.2548 0 24C0 10.7452 10.7452 0 24 0C37.2548 0 48 10.7452 48 24Z" fill="#D3AC4A"/>
<path fill-rule="evenodd" clip-rule="evenodd" d="M30.2981 36.2171C32.6607 35.9542 34.7192 33.5824 36.0682 31.8325C37.4322 30.063 30.5177 24.9753 28.4322 27.5231C26.2896 30.1406 25.2281 30.5055 21.2353 27.3402C17.8152 23.5751 18.1233 22.5059 20.643 20.241C23.0957 18.0364 17.5703 11.494 15.8622 12.9417C14.1729 14.3734 11.8963 16.5414 11.7649 18.8902C11.3446 26.3978 24.5703 36.8546 30.2981 36.2171Z" fill="white"/>
</svg>
