<svg width="48" height="48" viewBox="0 0 48 48" fill="none" xmlns="http://www.w3.org/2000/svg">
<path d="M48 24C48 37.2548 37.2548 48 24 48C10.7452 48 0 37.2548 0 24C0 10.7452 10.7452 0 24 0C37.2548 0 48 10.7452 48 24Z" fill="#D3AC4A"/>
<path d="M11.5104 15.6851V30.3402L18.4449 22.983L11.5104 15.6851Z" fill="white"/>
<path d="M35.5104 15.6851V30.3402L28.6103 23.0126L35.5104 15.6851Z" fill="white"/>
<path d="M12.0354 15.0204H34.9404L25.9384 24.6806C25.2977 25.3681 24.4128 25.7567 23.4879 25.7567C22.5631 25.7567 21.6781 25.3681 21.0375 24.6806L12.0354 15.0204Z" fill="white"/>
<path d="M26.4577 25.1945C25.6853 26.0233 24.6029 26.4987 23.4879 26.4987C22.373 26.4987 21.2905 26.0235 20.5182 25.1946L18.9913 23.556L12.0354 31.0204H34.9404L27.9845 23.556L26.4577 25.1945Z" fill="white"/>
</svg>
