<svg width="48" height="48" viewBox="0 0 48 48" fill="none" xmlns="http://www.w3.org/2000/svg">
<path d="M48 24C48 37.2548 37.2548 48 24 48C10.7452 48 0 37.2548 0 24C0 10.7452 10.7452 0 24 0C37.2548 0 48 10.7452 48 24Z" fill="#D3AC4A"/>
<path d="M23.5101 11.0204C16.8825 11.0204 11.5101 16.3928 11.5101 23.0204C11.5101 29.6481 16.8825 35.0204 23.5101 35.0204C30.1373 35.0204 35.5101 29.6481 35.5101 23.0204C35.5101 16.3928 30.1378 11.0204 23.5101 11.0204ZM34.5726 23.0204C34.5726 29.1301 29.6198 34.0829 23.5101 34.0829C17.4004 34.0829 12.4476 29.1301 12.4476 23.0204C12.4476 16.9107 17.4004 11.9579 23.5101 11.9579C29.6198 11.9579 34.5726 16.9107 34.5726 23.0204Z" fill="white"/>
<path d="M23.5101 23.9579C24.0279 23.9579 24.4476 23.5382 24.4476 23.0204C24.4476 22.5026 24.0279 22.0829 23.5101 22.0829C22.9924 22.0829 22.5726 22.5026 22.5726 23.0204C22.5726 23.5382 22.9924 23.9579 23.5101 23.9579Z" fill="white"/>
<path d="M23.5101 13.8329C18.4359 13.8329 14.3226 17.9462 14.3226 23.0204C14.3226 28.0946 18.4359 32.2079 23.5101 32.2079C28.5844 32.2079 32.6976 28.0946 32.6976 23.0204C32.6976 17.9462 28.5844 13.8329 23.5101 13.8329ZM29.7708 18.8645L30.3797 18.5129C30.6037 18.3835 30.8906 18.4604 31.02 18.6845C31.1494 18.9085 31.0725 19.1954 30.8484 19.3248L30.2395 19.6764C30.0154 19.8057 29.7286 19.7289 29.5992 19.5048C29.4698 19.2807 29.5467 18.9939 29.7708 18.8645ZM23.0414 14.8173C23.0414 14.5585 23.2514 14.3485 23.5101 14.3485C23.7689 14.3485 23.9789 14.5585 23.9789 14.8173V15.5204C23.9789 15.7792 23.7689 15.9892 23.5101 15.9892C23.2514 15.9892 23.0414 15.7792 23.0414 15.5204V14.8173ZM14.8383 23.0204C14.8383 22.7617 15.0483 22.5517 15.307 22.5517H16.0101C16.2689 22.5517 16.4789 22.7617 16.4789 23.0204C16.4789 23.2792 16.2689 23.4892 16.0101 23.4892H15.307C15.0483 23.4892 14.8383 23.2792 14.8383 23.0204ZM17.2495 27.1764L16.6406 27.5279C16.4165 27.6573 16.1297 27.5804 16.0003 27.3564C15.8709 27.1323 15.9478 26.8454 16.1719 26.716L16.7808 26.3645C17.0048 26.2351 17.2917 26.312 17.4211 26.536C17.5504 26.7601 17.4736 27.047 17.2495 27.1764ZM17.4211 19.5048C17.2917 19.7289 17.0048 19.8057 16.7808 19.6764L16.1719 19.3248C15.9478 19.1954 15.8709 18.9085 16.0003 18.6845C16.1297 18.4604 16.4165 18.3835 16.6406 18.5129L17.2495 18.8645C17.4736 18.9939 17.5504 19.2807 17.4211 19.5048ZM20.1661 29.7498L19.8145 30.3587C19.6851 30.5828 19.3983 30.6596 19.1742 30.5303C18.9501 30.4009 18.8733 30.114 19.0026 29.8899L19.3542 29.281C19.4836 29.057 19.7704 28.9801 19.9945 29.1095C20.2186 29.2389 20.2954 29.5257 20.1661 29.7498ZM19.9945 16.9309C19.7704 17.0603 19.4836 16.9834 19.3542 16.7593L19.0026 16.1504C18.8733 15.9264 18.9501 15.6395 19.1742 15.5101C19.3983 15.3807 19.6851 15.4576 19.8145 15.6817L20.1661 16.2906C20.2954 16.5146 20.2186 16.8015 19.9945 16.9309ZM23.9789 31.2231C23.9789 31.4818 23.7689 31.6918 23.5101 31.6918C23.2514 31.6918 23.0414 31.4818 23.0414 31.2231V30.5199C23.0414 30.2612 23.2514 30.0512 23.5101 30.0512C23.7689 30.0512 23.9789 30.2612 23.9789 30.5199V31.2231ZM23.9789 24.8354V28.1762C23.9789 28.4349 23.7689 28.6449 23.5101 28.6449C23.2514 28.6449 23.0414 28.4349 23.0414 28.1762V26.5806L22.9922 26.7634C22.9251 27.0132 22.6683 27.1618 22.4179 27.0948C22.1681 27.0278 22.0195 26.7709 22.0865 26.5206L22.5876 24.6512C22.0195 24.3287 21.6351 23.7184 21.6351 23.0199C21.6351 21.9859 22.4761 21.1449 23.5101 21.1449C24.5442 21.1449 25.3851 21.9859 25.3851 23.0199C25.3851 23.8918 24.7865 24.6268 23.9789 24.8354ZM27.8461 30.5298C27.622 30.6592 27.3351 30.5823 27.2058 30.3582L26.8542 29.7493C26.7248 29.5253 26.8017 29.2384 27.0258 29.109C27.2498 28.9796 27.5367 29.0565 27.6661 29.2806L28.0176 29.8895C28.147 30.1135 28.0701 30.4004 27.8461 30.5298ZM28.0176 16.1499L27.6661 16.7589C27.5367 16.9829 27.2498 17.0598 27.0258 16.9304C26.8017 16.801 26.7248 16.5142 26.8542 16.2901L27.2058 15.6812C27.3351 15.4571 27.622 15.3803 27.8461 15.5096C28.0701 15.639 28.147 15.9259 28.0176 16.1499ZM31.02 27.3554C30.8906 27.5795 30.6037 27.6564 30.3797 27.527L29.7708 27.1754C29.5467 27.046 29.4698 26.7592 29.5992 26.5351C29.7286 26.311 30.0154 26.2342 30.2395 26.3635L30.8484 26.7151C31.0725 26.8445 31.1494 27.1314 31.02 27.3554ZM31.7133 23.4882H31.0101C30.7514 23.4882 30.5414 23.2782 30.5414 23.0195C30.5414 22.7607 30.7514 22.5507 31.0101 22.5507H31.7133C31.972 22.5507 32.182 22.7607 32.182 23.0195C32.182 23.2782 31.972 23.4882 31.7133 23.4882Z" fill="white"/>
</svg>
