<svg width="24" height="26" viewBox="0 0 24 26" fill="none" xmlns="http://www.w3.org/2000/svg">
<path d="M20.5025 25.1704C19.6792 25.1704 19.011 24.5022 19.011 23.6789C19.011 23.6789 19.011 23.6789 19.011 23.673C18.9753 19.5207 15.5807 16.1917 11.4284 16.2275C7.32982 16.2633 4.01874 19.5744 3.98295 23.673C3.98295 24.4963 3.31477 25.1644 2.49147 25.1644C1.66818 25.1644 1 24.4963 1 23.673C1 17.8801 5.71306 13.167 11.5 13.167C17.2869 13.167 22 17.8801 22 23.667C22.0059 24.4903 21.3377 25.1585 20.5145 25.1644C20.5085 25.1704 20.5025 25.1704 20.5025 25.1704Z" fill="#D3AC4A"/>
<path d="M11.4938 11.4012C8.57651 11.4012 6.20805 9.0327 6.20805 6.11537C6.20805 3.19805 8.57651 0.82959 11.4938 0.82959C14.4112 0.82959 16.7796 3.19805 16.7796 6.11537C16.7737 9.03866 14.4112 11.4012 11.4938 11.4012ZM11.4938 3.8185C10.2231 3.8185 9.19697 4.84464 9.19697 6.11537C9.19697 7.38611 10.2231 8.41224 11.4938 8.41224C12.7646 8.41224 13.7907 7.38611 13.7907 6.11537C13.7907 4.8506 12.7646 3.82447 11.4938 3.8185Z" fill="#D3AC4A"/>
</svg>
