<svg width="24" height="24" viewBox="0 0 24 24" fill="none" xmlns="http://www.w3.org/2000/svg">
<path d="M11.0025 9.63082H8.03274V12.3233H11.0025V9.63082Z" fill="#D3AC4A"/>
<path d="M14.9679 9.63082H11.9988V12.3233H14.9679V9.63082Z" fill="#D3AC4A"/>
<path d="M18.9308 9.63082H15.961V12.3233H18.9308V9.63082Z" fill="#D3AC4A"/>
<path d="M7.03831 13.2248H4.06923V15.9153H7.03831V13.2248Z" fill="#D3AC4A"/>
<path d="M11.0025 13.2248H8.03274V15.9153H11.0025V13.2248Z" fill="#D3AC4A"/>
<path d="M14.9679 13.2248H11.9988V15.9153H14.9679V13.2248Z" fill="#D3AC4A"/>
<path d="M18.9308 13.2248H15.961V15.9153H18.9308V13.2248Z" fill="#D3AC4A"/>
<path d="M7.03831 16.8174H4.06923V19.5079H7.03831V16.8174Z" fill="#D3AC4A"/>
<path d="M11.0025 16.8174H8.03274V19.5079H11.0025V16.8174Z" fill="#D3AC4A"/>
<path d="M14.9679 16.8174H11.9988V19.5079H14.9679V16.8174Z" fill="#D3AC4A"/>
<path d="M18.9308 16.8174H15.961V19.5079H18.9308V16.8174Z" fill="#D3AC4A"/>
<path d="M20.3846 21.2015C20.3846 21.8369 19.8774 22.3538 19.2538 22.3538H3.74615C3.12262 22.3538 2.61538 21.8369 2.61538 21.2015V7.96686H1V21.2015C1 22.7443 2.23222 24 3.74615 24H19.2538C20.7684 24 22 22.7443 22 21.2015V7.96686H20.3846V21.2015Z" fill="#D3AC4A"/>
<path d="M19.2538 2.59965H18.5444V1.8108C18.5444 0.811896 17.7709 0 16.8191 0C15.8667 0 15.0939 0.811896 15.0939 1.8108V2.59899H13.3234V1.8108C13.3234 0.811896 12.55 0 11.5982 0C10.6464 0 9.87298 0.811896 9.87298 1.8108V2.59899H8.10252V1.8108C8.10252 0.811896 7.32908 0 6.37729 0C5.42551 0 4.65206 0.811896 4.65206 1.8108V2.59899H3.74615C2.23222 2.59899 1 3.8547 1 5.3975V6.71444H22V5.3975C22 3.85536 20.7684 2.59965 19.2538 2.59965ZM7.13329 5.03468C7.13329 5.48837 6.79406 5.85777 6.37729 5.85777C5.96052 5.85777 5.62129 5.48837 5.62129 5.03468V1.8108C5.62129 1.35711 5.96052 0.987708 6.37729 0.987708C6.79406 0.987708 7.13329 1.35711 7.13329 1.8108V5.03468ZM12.3542 5.03468C12.3542 5.48837 12.015 5.85777 11.5982 5.85777C11.1814 5.85777 10.8422 5.48837 10.8422 5.03468V1.8108C10.8422 1.35711 11.1814 0.987708 11.5982 0.987708C12.015 0.987708 12.3542 1.35711 12.3542 1.8108V5.03468ZM17.5751 5.03468C17.5751 5.48837 17.2359 5.85777 16.8191 5.85777C16.4017 5.85777 16.0631 5.48837 16.0631 5.03468V1.8108C16.0631 1.35711 16.4017 0.987708 16.8191 0.987708C17.2359 0.987708 17.5751 1.35711 17.5751 1.8108V5.03468Z" fill="#D3AC4A"/>
</svg>
