<svg width="52" height="52" viewBox="0 0 52 52" fill="none" xmlns="http://www.w3.org/2000/svg">
<path fill-rule="evenodd" clip-rule="evenodd" d="M27.5855 24.8099C27.9303 24.8096 28.2673 24.7066 28.554 24.5137C28.8406 24.3209 29.064 24.047 29.1959 23.7266C29.3278 23.4062 29.3624 23.0537 29.2952 22.7135C29.228 22.3734 29.0621 22.0609 28.8184 21.8155L28.1397 21.1347L30.3243 17.4674L30.7097 17.8532C31.0348 18.1747 31.4731 18.3538 31.929 18.3516C32.3849 18.3494 32.8215 18.1661 33.1436 17.8416C33.4656 17.517 33.6471 17.0776 33.6483 16.6191C33.6496 16.1606 33.4705 15.7202 33.1502 15.3939L28.8289 11.0573C28.5041 10.7326 28.0645 10.5507 27.6065 10.5513C27.1485 10.552 26.7094 10.7352 26.3855 11.0609C26.0622 11.3872 25.8809 11.8292 25.8813 12.2899C25.8816 12.7505 26.0637 13.1922 26.3875 13.518L26.7557 13.8878L23.1146 16.0928L22.4409 15.4174C22.2794 15.2546 22.0873 15.1255 21.8759 15.0377C21.6645 14.9499 21.4379 14.905 21.2092 14.9056H21.2072C20.8623 14.906 20.5253 15.0093 20.2387 15.2023C19.9521 15.3953 19.7288 15.6694 19.5971 15.99C19.4655 16.3106 19.4312 16.6632 19.4988 17.0034C19.5664 17.3435 19.7328 17.6559 19.9769 17.9009L22.633 20.5651L19.5612 23.6609C19.4211 23.802 19.3425 23.9934 19.3427 24.1928C19.3429 24.3923 19.4218 24.5835 19.5622 24.7243C19.7026 24.8652 19.8928 24.9443 20.0912 24.9441C20.2895 24.9439 20.4796 24.8645 20.6197 24.7233L23.6915 21.6276L26.3542 24.298C26.5159 24.4607 26.7079 24.5897 26.9193 24.6776C27.1307 24.7655 27.3568 24.8103 27.5855 24.8099ZM27.4434 12.123C27.4873 12.0796 27.5463 12.0552 27.6079 12.0552C27.6695 12.0552 27.7285 12.0796 27.7724 12.123L32.0937 16.4586C32.1366 16.5029 32.1606 16.5621 32.1608 16.6238C32.161 16.6855 32.1373 16.7449 32.0947 16.7894C32.0503 16.8321 31.9912 16.8559 31.9298 16.8559C31.8683 16.8559 31.8092 16.8321 31.7648 16.7894L27.4434 12.4539C27.4004 12.4097 27.3764 12.3504 27.3764 12.2887C27.3764 12.2269 27.4004 12.1672 27.4434 12.123ZM27.8473 14.9822L29.2338 16.3732L27.0482 20.0405L24.2051 17.1873L27.8473 14.9822ZM20.9603 16.6585C20.9602 16.6256 20.9666 16.593 20.9791 16.5625C20.9917 16.5321 21.0101 16.5044 21.0333 16.4812C21.0562 16.4581 21.0834 16.4398 21.1134 16.4275C21.1435 16.4151 21.1756 16.4089 21.208 16.4093C21.2407 16.4089 21.2732 16.415 21.3034 16.4273C21.3337 16.4397 21.3613 16.458 21.3844 16.4812L27.7621 22.8801C27.808 22.9272 27.8337 22.9906 27.8337 23.0566C27.8337 23.1226 27.808 23.186 27.7621 23.2332C27.7151 23.2792 27.6521 23.305 27.5865 23.305C27.5209 23.305 27.4579 23.2792 27.4109 23.2332L21.0336 16.835C21.0103 16.812 20.9919 16.7846 20.9794 16.7543C20.9668 16.724 20.9601 16.6913 20.9603 16.6585ZM39.2641 17.748C39.264 20.2867 38.5154 22.7683 37.1129 24.8791C35.7104 26.9898 33.717 28.635 31.3847 29.6064C29.0524 30.5779 26.4861 30.832 24.0102 30.3367C21.5343 29.8414 19.2601 28.6189 17.4751 26.8237C15.6901 25.0286 14.4746 22.7415 13.9821 20.2517C13.4897 17.7618 13.7425 15.181 14.7086 12.8356C15.6747 10.4902 17.3107 8.48564 19.4097 7.0753C21.5087 5.66496 23.9764 4.91222 26.5008 4.91228C29.8847 4.91626 33.1289 6.26989 35.5216 8.67621C37.9143 11.0825 39.2602 14.345 39.2641 17.748ZM15.2323 17.748C15.2323 15.5069 15.8931 13.3161 17.1312 11.4527C18.3693 9.5893 20.129 8.13692 22.1879 7.27925C24.2468 6.42159 26.5124 6.19715 28.6981 6.63431C30.8838 7.07148 32.8916 8.15062 34.4674 9.73527C36.0433 11.3199 37.1165 13.3389 37.5514 15.5369C37.9862 17.735 37.7632 20.0133 36.9104 22.0839C36.0577 24.1544 34.6136 25.9242 32.7607 27.1694C30.9078 28.4146 28.7293 29.0793 26.5008 29.0794C23.5133 29.0763 20.649 27.8815 18.5364 25.7571C16.4238 23.6328 15.2356 20.7524 15.2323 17.748ZM14.1974 5.11698C17.4627 1.84026 21.8873 0 26.5002 0C31.1131 0 35.5377 1.84026 38.803 5.11698H38.804C45.1784 11.5272 45.1536 21.73 38.744 29.9288L26.5008 45.5897L14.2558 29.9283C7.84676 21.7295 7.82303 11.5272 14.1974 5.11698ZM39.1286 49.9257C42.2245 48.6936 44 47.0784 44 45.492C44 42.9719 39.5513 40.5114 33.1683 39.493L27.0882 47.2707C27.0183 47.3604 26.9291 47.433 26.8271 47.4829C26.7252 47.5328 26.6134 47.5588 26.5 47.5588C26.3866 47.5588 26.2748 47.5328 26.1729 47.4829C26.0709 47.433 25.9817 47.3604 25.9118 47.2707L19.8312 39.493C13.4478 40.5114 9 42.9707 9 45.492C9 47.0784 10.777 48.6936 13.8729 49.9257C17.2329 51.2629 21.718 52 26.5008 52C31.2836 52 35.7671 51.2629 39.1286 49.9257Z" fill="#37405E"/>
</svg>
