<svg width="52" height="53" viewBox="0 0 52 53" fill="none" xmlns="http://www.w3.org/2000/svg">
<path fill-rule="evenodd" clip-rule="evenodd" d="M29.2849 1.62499L32.5875 4.12731C33.4908 4.81167 34.4416 5.1619 35.5681 5.22539L39.6871 5.45731C42.1535 5.59614 44.1567 7.29743 44.72 9.73199L45.661 13.7977C45.9183 14.9096 46.4242 15.7964 47.2469 16.578L50.255 19.4357C52.0562 21.1467 52.5102 23.7533 51.3959 25.9848L49.5348 29.7114C49.0259 30.7307 48.8502 31.7391 48.9841 32.8731L49.4737 37.0194C49.7669 39.502 48.4594 41.7942 46.1887 42.7785L42.3964 44.4225C41.3592 44.8721 40.5842 45.5303 39.9667 46.4861L37.7087 49.9808C36.3567 52.0733 33.8995 52.9785 31.535 52.2552L27.586 51.0473C26.506 50.7169 25.4943 50.7169 24.4142 51.0473L20.4652 52.2552C18.1007 52.9785 15.6435 52.0733 14.2915 49.9808L12.0335 46.4861C11.4159 45.5303 10.6409 44.8721 9.60382 44.4225L5.81127 42.7783C3.5406 41.7939 2.23312 39.5018 2.52627 37.0191L3.01594 32.8729C3.14984 31.7389 2.97412 30.7304 2.46517 29.7112L0.604109 25.9846C-0.510211 23.7532 -0.0561841 21.1466 1.74497 19.4354L4.75307 16.5777C5.57576 15.7962 6.08156 14.9093 6.33886 13.7974L7.27984 9.73177C7.84318 7.29732 9.84637 5.59603 12.3128 5.45709L16.4318 5.22518C17.5583 5.16179 18.5091 4.81145 19.4123 4.12709L22.715 1.62477C24.6924 0.126667 27.3074 0.126667 29.2849 1.62499ZM23.8931 27.9333L20.309 24.3054C19.3801 23.3651 17.8732 23.3651 16.9444 24.3054C16.0154 25.2457 16.0154 26.7708 16.9444 27.7111L22.216 33.0469C23.145 33.9871 24.6518 33.9872 25.5806 33.0469C28.7581 29.8306 31.8995 26.5782 35.0623 23.3473C35.9846 22.4051 35.9816 20.8849 35.052 19.9492C34.1223 19.0133 32.616 19.0159 31.6928 19.9597L23.8931 27.9333ZM25.9999 8.56756C21.1074 8.56756 16.678 10.5749 13.4718 13.8202C10.2655 17.0657 8.28236 21.549 8.28236 26.5012C8.28236 31.4533 10.2655 35.9367 13.4718 39.1821C16.678 42.4274 21.1074 44.4348 25.9999 44.4348C30.8923 44.4348 35.3218 42.4274 38.528 39.1821C41.7343 35.9367 43.7174 31.4533 43.7174 26.5012C43.7174 21.549 41.7343 17.0656 38.528 13.8202C35.3218 10.5749 30.8923 8.56756 25.9999 8.56756ZM37.3024 15.0608C34.4099 12.133 30.4138 10.322 25.9999 10.322C21.5859 10.322 17.5898 12.133 14.6973 15.0608C11.8048 17.9886 10.0157 22.0334 10.0157 26.5012C10.0157 30.9689 11.8048 35.0138 14.6973 37.9415C17.5898 40.8693 21.5859 42.6803 25.9999 42.6803C30.4138 42.6803 34.4099 40.8693 37.3024 37.9417C40.195 35.0139 41.984 30.969 41.984 26.5013C41.9841 22.0334 40.195 17.9886 37.3024 15.0608Z" fill="#37405E"/>
</svg>
