<svg width="52" height="53" viewBox="0 0 52 53" fill="none" xmlns="http://www.w3.org/2000/svg">
<path d="M10.6292 29.7759C9.92138 27.0282 9.52762 23.9895 9.48508 20.8351H0C0.117927 24.9325 1.49728 28.7259 3.77038 31.8552C5.9252 30.9845 8.22704 30.2866 10.6292 29.7759Z" fill="#37405E"/>
<path d="M16.0761 39.7373C16.0349 39.7032 15.9937 39.6689 15.9527 39.634C15.9104 39.5977 15.8682 39.5604 15.8261 39.523C15.7852 39.4868 15.7443 39.4506 15.7037 39.4134C15.662 39.3752 15.6207 39.3359 15.5792 39.2966C15.5387 39.2583 15.4983 39.2201 15.458 39.1809C15.4167 39.1404 15.3757 39.099 15.3347 39.0576C15.2948 39.0174 15.255 38.9776 15.2154 38.9364C15.1745 38.8939 15.134 38.8501 15.0934 38.8066C15.0543 38.7646 15.015 38.7229 14.9761 38.68C14.9355 38.6352 14.8954 38.5892 14.8551 38.5435C14.8167 38.4997 14.7782 38.4563 14.74 38.4118C14.6997 38.3646 14.6597 38.316 14.6196 38.2677C14.5822 38.2225 14.5446 38.1778 14.5074 38.1317C14.4672 38.082 14.4275 38.0309 14.3877 37.9802C14.3512 37.9336 14.3145 37.8873 14.2781 37.8399C14.238 37.7874 14.1984 37.7335 14.1588 37.68C14.1234 37.6324 14.0878 37.5852 14.0527 37.5367C14.0123 37.4809 13.9725 37.4236 13.9326 37.3668C13.8986 37.3185 13.8645 37.2709 13.8308 37.2217C13.7903 37.1625 13.7503 37.1018 13.7101 37.0415C13.6776 36.9927 13.6448 36.9446 13.6126 36.8951C13.5718 36.8325 13.5318 36.7683 13.4914 36.7044C13.4603 36.6552 13.429 36.6068 13.3983 36.557C13.3567 36.4895 13.3156 36.4205 13.2745 36.3518C13.2456 36.3037 13.2165 36.2564 13.1879 36.2076C13.1441 36.1329 13.1008 36.0563 13.0576 35.9801C13.0323 35.9355 13.0067 35.892 12.9816 35.847C12.9336 35.7609 12.8863 35.6727 12.8389 35.5845C12.8192 35.5478 12.7989 35.5119 12.7793 35.4747C12.7126 35.3487 12.6464 35.2209 12.5812 35.0912C11.9372 33.8122 11.387 32.3979 10.9362 30.8824C8.68589 31.3577 6.52663 32.0004 4.50014 32.7996C7.41476 36.3509 11.5365 38.9127 16.2499 39.879C16.2347 39.8671 16.2198 39.8541 16.2046 39.8421C16.1615 39.8078 16.1188 39.7725 16.0761 39.7373Z" fill="#37405E"/>
<path d="M13.6292 34.5845C13.685 34.6952 13.7412 34.8041 13.798 34.9118C13.8167 34.9474 13.8357 34.9818 13.8546 35.0171C13.8929 35.0888 13.9312 35.1604 13.9699 35.2307C13.9925 35.2716 14.0154 35.3118 14.0382 35.3523C14.0736 35.4153 14.1089 35.4783 14.1446 35.5402C14.1692 35.5828 14.1941 35.6246 14.2189 35.6666C14.2532 35.7251 14.2877 35.7836 14.3224 35.8408C14.3481 35.8833 14.374 35.9252 14.3999 35.9672C14.4341 36.0227 14.4685 36.078 14.5031 36.1325C14.5296 36.1742 14.5562 36.2155 14.5827 36.2566C14.6174 36.3102 14.6522 36.3633 14.6872 36.4159C14.7138 36.4561 14.7405 36.4959 14.7674 36.5355C14.8029 36.5877 14.8385 36.6392 14.8743 36.6905C14.9011 36.7287 14.9278 36.7671 14.9547 36.8049C14.9913 36.8562 15.0281 36.9067 15.0649 36.9569C15.0913 36.9927 15.1176 37.029 15.1442 37.0643C15.1826 37.1157 15.2214 37.166 15.2602 37.2162C15.2855 37.2489 15.3107 37.2821 15.3361 37.3143C15.379 37.3688 15.4222 37.4218 15.4653 37.4748C15.4868 37.5012 15.5082 37.5282 15.5298 37.5542C15.5909 37.6278 15.6522 37.6997 15.7139 37.7705C15.718 37.7752 15.7221 37.7801 15.7262 37.7848C15.792 37.86 15.8581 37.9334 15.9248 38.0055C15.9463 38.0286 15.968 38.0508 15.9895 38.0738C16.0347 38.1218 16.08 38.1698 16.1256 38.2163C16.1518 38.2431 16.1784 38.2691 16.2048 38.2953C16.246 38.3364 16.2872 38.3776 16.3287 38.4175C16.3571 38.4449 16.3856 38.4713 16.414 38.498C16.4537 38.5354 16.4936 38.5726 16.5336 38.609C16.5631 38.6356 16.5929 38.6619 16.6226 38.6881C16.6619 38.7227 16.7012 38.757 16.7407 38.7906C16.771 38.8165 16.8014 38.8417 16.8318 38.8667C16.8711 38.8993 16.9106 38.9312 16.9501 38.9626C16.9808 38.987 17.0116 39.0111 17.0424 39.035C17.0821 39.0655 17.1219 39.0953 17.1618 39.1249C17.1925 39.1475 17.2232 39.1702 17.2541 39.1924C17.2946 39.2215 17.3354 39.2497 17.3762 39.2776C17.4065 39.2985 17.4369 39.3194 17.4673 39.3397C17.5095 39.3677 17.5519 39.3945 17.5943 39.4214C17.6234 39.4399 17.6525 39.4588 17.6819 39.4766C17.7278 39.5047 17.774 39.5314 17.8201 39.5581C17.8461 39.5731 17.8718 39.5887 17.8978 39.6033C17.9592 39.6376 18.0209 39.6704 18.0826 39.7022C18.0934 39.7078 18.1042 39.714 18.115 39.7194C18.1875 39.7563 18.2603 39.7913 18.3332 39.8248C18.3567 39.8356 18.3804 39.8453 18.4039 39.8557C18.4537 39.8777 18.5034 39.8997 18.5533 39.92C18.5824 39.932 18.6116 39.9427 18.6408 39.9541C18.6853 39.9713 18.7299 39.9888 18.7745 40.0048C18.8061 40.0161 18.8377 40.0264 18.8694 40.0371C18.912 40.0515 18.9545 40.0657 18.997 40.0789C19.0298 40.0891 19.0627 40.0985 19.0956 40.108C19.1374 40.1199 19.1793 40.1317 19.2212 40.1427C19.2545 40.1514 19.2877 40.1595 19.321 40.1675C19.3629 40.1775 19.4047 40.187 19.4465 40.1958C19.4801 40.203 19.5135 40.2098 19.5471 40.2162C19.589 40.2241 19.6311 40.2314 19.6733 40.2383C19.7068 40.2438 19.7402 40.2492 19.7738 40.2538C19.7872 40.2558 19.8007 40.2572 19.8142 40.259C19.796 39.9805 19.7863 39.7007 19.7845 39.42C19.7845 39.4142 19.7845 39.4085 19.7845 39.403C19.784 39.297 19.7844 39.1908 19.7863 39.0847C19.7873 39.0091 19.7893 38.9337 19.7916 38.8583C19.7924 38.8324 19.7933 38.8066 19.7942 38.7807C19.8056 38.4609 19.8272 38.1427 19.8599 37.8267V29.908C17.2193 29.9402 14.6095 30.1907 12.0844 30.6532C12.5104 32.0693 13.0274 33.3893 13.6292 34.5845Z" fill="#37405E"/>
<path d="M10.6541 19.69H19.8595V11.7621C17.106 11.7292 14.3915 11.4639 11.7748 10.9788C11.0824 13.6466 10.6966 16.6082 10.6541 19.69Z" fill="#37405E"/>
<path d="M11.7743 29.545C14.3994 29.0583 17.1138 28.7958 19.8595 28.7631V20.8352H10.6541C10.6966 23.9163 11.0823 26.8774 11.7743 29.545Z" fill="#37405E"/>
<path d="M12.5811 5.43389C12.6463 5.30426 12.7123 5.17658 12.7791 5.05061C12.8007 5.00984 12.8229 4.97033 12.8446 4.92991C12.89 4.84563 12.9353 4.76112 12.9813 4.67855C13.0083 4.63011 13.0359 4.58305 13.0632 4.53518C13.1046 4.46246 13.1457 4.38929 13.1876 4.31795C13.2176 4.26664 13.2483 4.21694 13.2786 4.16633C13.3182 4.10014 13.3577 4.03361 13.3978 3.96868C13.43 3.91657 13.4627 3.86596 13.4952 3.81465C13.5341 3.75316 13.5728 3.69109 13.612 3.63074C13.6456 3.57921 13.6796 3.52928 13.7134 3.47855C13.7523 3.42015 13.7911 3.36129 13.8302 3.30403C13.8648 3.25365 13.8999 3.20464 13.9347 3.15505C13.9738 3.09951 14.0127 3.0434 14.0522 2.989C14.0881 2.93942 14.1243 2.89132 14.1604 2.84266C14.1993 2.79021 14.2384 2.73719 14.2775 2.68577C14.3143 2.63756 14.3517 2.59061 14.3888 2.54331C14.4281 2.49316 14.4672 2.44277 14.5068 2.39376C14.5444 2.34727 14.5823 2.30215 14.6201 2.25657C14.6598 2.2087 14.6994 2.16049 14.7395 2.11366C14.7778 2.06888 14.8163 2.02548 14.8549 1.98174C14.8951 1.93593 14.9353 1.88989 14.9759 1.84512C15.0145 1.80241 15.0535 1.76107 15.0924 1.71927C15.1333 1.67541 15.1742 1.63132 15.2154 1.58849C15.2546 1.54773 15.2942 1.5081 15.3337 1.46825C15.3751 1.42657 15.4165 1.38477 15.4581 1.344C15.4978 1.30518 15.5378 1.26751 15.5778 1.2296C15.6198 1.18975 15.6618 1.1499 15.7042 1.1112C15.7442 1.07455 15.7845 1.03894 15.8247 1.00321C15.8674 0.965305 15.91 0.927515 15.953 0.890756C15.9934 0.856172 16.0339 0.822619 16.0746 0.789067C16.1181 0.753109 16.1615 0.717266 16.2053 0.682339C16.2201 0.67043 16.2347 0.657833 16.2497 0.646038C11.5364 1.61231 7.41465 4.17411 4.50014 7.72532C6.53505 8.52796 8.69349 9.16981 10.9358 9.6431C11.3868 8.12738 11.937 6.71313 12.5811 5.43389Z" fill="#37405E"/>
<path d="M13.6292 5.94062C13.0278 7.13512 12.511 8.45409 12.0847 9.86881C14.6013 10.3298 17.2111 10.5813 19.8595 10.6136V0.26001C17.5365 0.546869 15.3427 2.53747 13.6292 5.94062Z" fill="#37405E"/>
<path d="M10.6288 10.7508C8.23499 10.2421 5.93233 9.54656 3.76874 8.67225C1.4967 11.8011 0.118043 15.5935 0.00011681 19.6899H9.4852C9.52774 16.5363 9.92126 13.4981 10.6288 10.7508Z" fill="#37405E"/>
<path d="M31.4026 19.69H40.8877C40.7697 15.5936 39.391 11.8012 37.119 8.67236C34.9553 9.54668 32.6528 10.2422 30.259 10.7509C30.9663 13.4981 31.3599 16.5363 31.4026 19.69Z" fill="#37405E"/>
<path d="M29.113 10.9786C26.4961 11.4638 23.7815 11.7291 21.0282 11.762V19.6899H30.2336C30.1911 16.6082 29.8053 13.6465 29.113 10.9786Z" fill="#37405E"/>
<path d="M21.0282 29.9111V33.5088C21.6095 32.2284 22.385 31.0451 23.3372 29.9946C22.5691 29.9479 21.7977 29.9206 21.0282 29.9111Z" fill="#37405E"/>
<path d="M50.6848 24.8421C49.3489 24.8421 47.9357 24.7649 46.4395 24.683C44.8039 24.5934 43.1126 24.5009 41.3671 24.5009C41.2962 24.5009 41.2237 24.5015 41.1519 24.5018H41.1518C38.3098 24.5145 35.8562 24.7973 33.6349 25.3769C33.592 25.3883 33.5491 25.3997 33.5061 25.4112C33.3785 25.4453 33.2519 25.4809 33.1257 25.5171C33.0397 25.5418 32.9535 25.5666 32.8673 25.5924C32.7946 25.6142 32.7226 25.637 32.6505 25.6594C32.5277 25.6977 32.405 25.7358 32.2821 25.7766C32.2787 25.7777 32.2752 25.779 32.2718 25.7801C31.6228 25.9955 30.97 26.2472 30.3166 26.5381C30.2703 26.5588 30.2238 26.5789 30.1776 26.5999C30.046 26.6596 29.9143 26.7217 29.7827 26.7848C29.7143 26.8176 29.6461 26.851 29.5781 26.8846C29.4593 26.9431 29.3407 27.0021 29.2219 27.0635C29.1172 27.1178 29.0133 27.174 28.9094 27.2301C28.7954 27.2915 28.6815 27.3535 28.5676 27.4177C28.4084 27.5075 28.2497 27.5987 28.0926 27.6929C28.0289 27.731 27.9653 27.7711 27.9017 27.81C27.7662 27.8933 27.631 27.9776 27.497 28.064C27.4324 28.1057 27.3677 28.1482 27.3031 28.1909C27.1697 28.2791 27.0373 28.3689 26.9056 28.4602C26.8438 28.5032 26.7817 28.5458 26.7199 28.5898C26.5814 28.6878 26.4445 28.7883 26.3081 28.89C26.2551 28.9296 26.2019 28.9679 26.149 29.0081C25.9614 29.1505 25.7753 29.2957 25.5917 29.4447C25.4973 29.5218 25.4046 29.6005 25.3128 29.6799C25.2745 29.7133 25.2369 29.747 25.199 29.7807C25.15 29.8241 25.1014 29.8677 25.0533 29.9118C25.0003 29.9605 24.9477 30.0094 24.8957 30.0586C24.8728 30.0803 24.8501 30.1023 24.8273 30.1241C22.5673 32.3047 21.2831 35.2119 21.0284 38.2157V40.4444C21.2406 42.9392 22.1675 45.3938 23.8414 47.4498C26.7447 42.0033 31.1621 37.9528 34.4274 35.4752C38.1251 32.6693 41.1037 31.2566 41.2286 31.1977C41.4987 31.0706 41.823 31.1645 41.9796 31.4147C42.1362 31.665 42.0743 31.9907 41.8361 32.1689C41.8137 32.1859 39.5181 33.9294 37.1872 37.3111C35.0936 40.3482 32.5504 45.356 32.163 52.1087C32.8303 52.2093 33.5059 52.26 34.1777 52.26C37.2667 52.26 40.2576 51.1767 42.5999 49.2097C46.7259 45.8521 47.5218 40.3888 48.2917 35.1052C48.8787 31.0753 49.4385 27.2346 51.5393 24.8304C51.2659 24.8383 50.9816 24.8421 50.6848 24.8421Z" fill="#37405E"/>
<path d="M24.465 28.8867C24.4912 28.8638 24.517 28.8405 24.5433 28.8176C24.6424 28.732 24.7426 28.6474 24.8444 28.5641C25.034 28.4102 25.2241 28.2614 25.4145 28.1165C25.4586 28.0829 25.5035 28.0508 25.5478 28.0177C25.6988 27.9044 25.85 27.7927 26.0016 27.6847C26.0479 27.6518 26.0947 27.6199 26.1412 27.5873C26.2955 27.4791 26.4499 27.373 26.6045 27.2702C26.6475 27.2416 26.6909 27.2135 26.734 27.1853C26.8977 27.0782 27.0615 26.9738 27.2254 26.8725C27.262 26.8499 27.2987 26.8273 27.3354 26.8048C27.516 26.6945 27.697 26.5877 27.878 26.4842C27.9 26.4717 27.9218 26.4588 27.9438 26.4463C28.5859 26.0822 29.2292 25.7601 29.8714 25.4753C29.8803 25.4713 29.8891 25.4669 29.8981 25.463C29.9064 25.4004 29.915 25.3379 29.923 25.275C29.9358 25.1739 29.9486 25.0726 29.9606 24.971C29.975 24.8509 29.9885 24.7304 30.0018 24.6097C30.0127 24.5105 30.0236 24.4115 30.0336 24.3118C30.0463 24.1878 30.0579 24.0632 30.0694 23.9386C30.0784 23.8414 30.0874 23.7443 30.0957 23.6468C30.1066 23.519 30.1162 23.3909 30.1257 23.2627C30.1329 23.1673 30.1402 23.0719 30.1468 22.9764C30.1555 22.8447 30.1631 22.7125 30.1706 22.5804C30.176 22.4875 30.1818 22.3949 30.1865 22.3019C30.1935 22.1638 30.1988 22.0252 30.2043 21.8868C30.2078 21.7992 30.212 21.7119 30.2149 21.6242C30.2201 21.4712 30.2233 21.3177 30.2268 21.1643C30.2285 21.0909 30.2309 21.0178 30.2322 20.9444C30.2328 20.908 30.2327 20.8715 30.2331 20.8351H21.0282V28.7659C22.1611 28.7795 23.2985 28.8321 24.4225 28.9241C24.4366 28.9117 24.4508 28.8992 24.465 28.8867Z" fill="#37405E"/>
<path d="M31.3965 21.1393C31.3934 21.2916 31.3895 21.4438 31.3847 21.5958C31.3821 21.6767 31.3791 21.7576 31.3761 21.8384C31.3707 21.9835 31.3644 22.1283 31.3575 22.2729C31.3536 22.3518 31.35 22.4307 31.3456 22.5096C31.337 22.6682 31.3273 22.8264 31.3169 22.9844C31.3128 23.0463 31.3094 23.1084 31.305 23.1702C31.2897 23.388 31.2729 23.6053 31.254 23.8218C31.2504 23.8645 31.246 23.9069 31.2421 23.9495C31.2265 24.1239 31.21 24.2979 31.1921 24.4715C31.1843 24.5476 31.1756 24.6234 31.1673 24.6995C31.158 24.786 31.1493 24.8731 31.1393 24.9594C34.5177 23.7038 37.8141 23.4008 40.6535 23.3612C40.7853 22.5284 40.863 21.6825 40.8874 20.8352H31.4025C31.402 20.8662 31.4012 20.8971 31.4007 20.928C31.3998 20.9985 31.398 21.0689 31.3965 21.1393Z" fill="#37405E"/>
<path d="M27.2585 5.94062C25.545 2.53736 23.3513 0.546869 21.0282 0.26001V10.6137C23.6766 10.5813 26.2863 10.3298 28.8028 9.86892C28.3767 8.45409 27.8599 7.135 27.2585 5.94062Z" fill="#37405E"/>
<path d="M24.8127 0.788838C24.8534 0.822505 24.8941 0.856058 24.9345 0.890756C24.9775 0.927515 25.0202 0.965305 25.0628 1.00321C25.103 1.03894 25.1434 1.07455 25.1835 1.1112C25.2256 1.1499 25.2677 1.18975 25.3097 1.22949C25.3498 1.26739 25.3899 1.30518 25.4296 1.34412C25.4711 1.38466 25.5122 1.42623 25.5535 1.46779C25.5931 1.50787 25.6328 1.54761 25.6723 1.58861C25.7135 1.63132 25.7542 1.67518 25.7949 1.71892C25.834 1.76072 25.873 1.80229 25.9118 1.84512C25.9523 1.88978 25.9923 1.9357 26.0326 1.98139C26.0711 2.02525 26.1099 2.06888 26.1483 2.11377C26.1881 2.16049 26.2276 2.20847 26.2672 2.25611C26.3052 2.3018 26.3432 2.34704 26.3808 2.39376C26.4205 2.44277 26.4596 2.49316 26.4989 2.54331C26.536 2.59061 26.5733 2.63756 26.6101 2.68577C26.6494 2.73707 26.6881 2.78986 26.727 2.8422C26.7634 2.89109 26.7997 2.93942 26.8358 2.98923C26.875 3.04351 26.9138 3.09917 26.9526 3.15448C26.9877 3.20429 27.0229 3.25342 27.0575 3.30415C27.0968 3.36141 27.1356 3.42038 27.1745 3.47867C27.2083 3.5294 27.2423 3.57933 27.2757 3.63086C27.3151 3.69121 27.3538 3.75327 27.3927 3.81477C27.4251 3.86607 27.458 3.91669 27.4901 3.96879C27.5302 4.03372 27.5697 4.10025 27.6093 4.16644C27.6397 4.21706 27.6702 4.26676 27.7004 4.31806C27.7422 4.3894 27.7833 4.46258 27.8247 4.53529C27.8518 4.58316 27.8795 4.63023 27.9065 4.67867C27.9526 4.76123 27.9978 4.84574 28.0433 4.93003C28.065 4.97045 28.0871 5.00984 28.1088 5.05072C28.1754 5.17669 28.2415 5.30437 28.3067 5.434C28.9508 6.71313 29.501 8.12738 29.9517 9.6431C32.1942 9.16992 34.3525 8.52796 36.3875 7.72532C33.4729 4.17423 29.3512 1.61243 24.638 0.646153C24.653 0.657948 24.6677 0.670659 24.6825 0.682568C24.7261 0.717266 24.7695 0.752995 24.8127 0.788838Z" fill="#37405E"/>
<path d="M5.25013 41.4477C3.63901 41.4477 2.32826 42.7319 2.32826 44.3105C2.32826 45.8891 3.63901 47.1734 5.25013 47.1734C6.86125 47.1734 8.172 45.8891 8.172 44.3105C8.172 42.7319 6.86125 41.4477 5.25013 41.4477Z" fill="#37405E"/>
<path d="M46.7406 9.38372C48.674 9.38372 50.2469 7.84259 50.2469 5.94829C50.2469 4.05399 48.674 2.51285 46.7406 2.51285C44.8073 2.51285 43.2344 4.05399 43.2344 5.94829C43.2344 7.84259 44.8073 9.38372 46.7406 9.38372Z" fill="#37405E"/>
<path d="M47.8091 16.1563C48.4546 16.1563 48.9779 15.6436 48.9779 15.0112C48.9779 14.3787 48.4546 13.866 47.8091 13.866C47.1636 13.866 46.6404 14.3787 46.6404 15.0112C46.6404 15.6436 47.1636 16.1563 47.8091 16.1563Z" fill="#37405E"/>
<path d="M50.8313 48.8911C51.4767 48.8911 52 48.3784 52 47.746C52 47.1135 51.4767 46.6008 50.8313 46.6008C50.1858 46.6008 49.6625 47.1135 49.6625 47.746C49.6625 48.3784 50.1858 48.8911 50.8313 48.8911Z" fill="#37405E"/>
<path d="M13.9155 48.2203C14.5609 48.2203 15.0842 47.7076 15.0842 47.0751C15.0842 46.4427 14.5609 45.93 13.9155 45.93C13.27 45.93 12.7467 46.4427 12.7467 47.0751C12.7467 47.7076 13.27 48.2203 13.9155 48.2203Z" fill="#37405E"/>
</svg>
