<svg width="52" height="53" viewBox="0 0 52 53" fill="none" xmlns="http://www.w3.org/2000/svg">
<path fill-rule="evenodd" clip-rule="evenodd" d="M50 21.6586V2.15991H29.5455V21.6575H50V21.6586ZM44.1666 29.639V50.1599H40.6002V45.8612C40.6002 45.4947 40.3183 45.1988 39.9714 45.1988C39.6234 45.1988 39.3425 45.4947 39.3425 45.8612V50.1599H35.775V47.2776C35.775 46.9122 35.4931 46.6152 35.1462 46.6152C34.7983 46.6152 34.5174 46.9122 34.5174 47.2776V50.1599H30.9499V45.8612C30.9499 45.4947 30.6679 45.1988 30.321 45.1988C29.9741 45.1988 29.6922 45.4947 29.6922 45.8612V50.1599H26.1247V47.2776C26.1247 46.9122 25.8438 46.6152 25.4959 46.6152C25.149 46.6152 24.8671 46.9122 24.8671 47.2776V50.1599H21.2996V45.8612C21.2996 45.4947 21.0187 45.1988 20.6707 45.1988C20.3238 45.1988 20.0419 45.4947 20.0419 45.8612V50.1599H16.4755V47.2776C16.4755 46.9122 16.1935 46.6152 15.8466 46.6152C15.4987 46.6152 15.2178 46.9122 15.2178 47.2776V50.1599H11.6503V45.8612C11.6503 45.4947 11.3684 45.1988 11.0215 45.1988C10.6735 45.1988 10.3927 45.4947 10.3927 45.8612V50.1599H6.82515V47.2776C6.82515 46.9122 6.54323 46.6152 6.19633 46.6152C5.84943 46.6152 5.56751 46.9122 5.56751 47.2776V50.1599H2V7.79217H22.4545V28.9766C22.4545 29.342 22.7364 29.639 23.0833 29.639H44.1666Z" fill="#37405E"/>
</svg>
