<svg width="52" height="53" viewBox="0 0 52 53" fill="none" xmlns="http://www.w3.org/2000/svg">
<path fill-rule="evenodd" clip-rule="evenodd" d="M21.8639 52.4971C19.94 52.4971 16.8532 52.4971 15.129 52.4226C13.9791 52.4167 12.9439 51.7254 12.4913 50.6653C11.9607 49.6926 10.773 48.7283 9.47188 47.8124C7.22416 46.2323 4.59708 44.8661 3.53585 44.1333C2.78189 43.6122 2.10355 42.6206 1.58475 41.336C0.566071 38.8128 0.0602772 35.0865 0.00355237 32.704C-0.040173 30.8438 0.564888 29.8877 1.2255 29.3913C2.27254 28.6031 3.78876 28.8772 4.67744 29.2613C4.9658 29.3866 5.23878 29.6076 5.4515 29.9669C5.65595 30.3108 5.82258 30.8875 5.93603 31.6262C6.07311 32.5208 6.17002 33.7215 6.41464 34.9211C6.625 35.954 6.93344 36.9952 7.54796 37.761C8.3102 38.7088 9.89967 39.7287 11.5104 40.6399C11.7716 40.7876 12.0339 40.9318 12.2928 41.0701C11.5518 39.7393 10.9774 38.2561 10.8888 36.8261C10.8037 35.4434 11.1937 34.5795 11.6841 34.0489C12.4807 33.185 13.6754 33.0585 14.6303 33.3469C15.3417 33.5608 15.8818 34.0099 16.1158 34.4164C16.527 35.1302 18.7771 39.1402 21.7611 40.9921C22.8542 41.6704 23.6129 42.8298 24.0833 44.1948C24.6919 45.9604 24.8266 48.07 24.8183 49.5603C24.8089 51.1853 23.4888 52.4971 21.8639 52.4971ZM30.1375 52.4971C28.5125 52.4971 27.1925 51.1853 27.1818 49.5603C27.1748 48.07 27.3083 45.9604 27.9181 44.1948C28.3884 42.8298 29.1459 41.6704 30.2403 40.9921C33.2242 39.1402 35.4743 35.1302 35.8856 34.4164C36.0936 34.0548 36.532 33.6612 37.1288 33.4296C37.8721 33.1412 38.8412 33.1022 39.6318 33.5206C40.4543 33.9555 41.2319 34.8927 41.1125 36.8261C41.0239 38.2561 40.4484 39.7405 39.7062 41.0724C39.9662 40.9318 40.2286 40.7876 40.4897 40.6399C42.1017 39.7287 43.6911 38.7088 44.4534 37.761C45.0679 36.9952 45.3763 35.954 45.5867 34.9211C45.8301 33.7215 45.9282 32.5208 46.0653 31.6262C46.1788 30.8875 46.3454 30.3108 46.5498 29.9669C46.7626 29.6076 47.0355 29.3866 47.3239 29.2613C48.2114 28.8772 49.7276 28.6031 50.7758 29.3913C51.4364 29.8877 52.0415 30.8438 51.9978 32.704C51.941 35.0865 51.4353 38.8128 50.4166 41.336C49.8978 42.6206 49.2194 43.6122 48.4643 44.1333C47.4031 44.8661 44.776 46.2323 42.5295 47.8124C41.2236 48.7306 40.0336 49.6985 39.5041 50.6747C39.0562 51.7242 38.0281 52.4108 36.8889 52.4226C35.154 52.4971 32.0625 52.4971 30.1375 52.4971ZM14.6374 27.5512C10.2483 27.9507 5.23643 27.3657 2.516 25.879C0.887523 24.9879 0 23.7553 0 22.3453C0 17.6003 3.12342 13.5207 7.54204 11.891C6.17947 10.6985 5.31795 8.94825 5.31795 6.99707C5.31795 3.40907 8.23101 0.49707 11.8177 0.49707C15.4055 0.49707 18.3174 3.40907 18.3174 6.99707C18.3174 8.94825 17.4571 10.6997 16.0933 11.891C18.1661 12.6556 19.9553 13.958 21.2683 15.6149C21.4184 15.5522 21.5696 15.492 21.7233 15.4364C20.3607 14.244 19.4992 12.4937 19.4992 10.5425C19.4992 6.95452 22.4122 4.04252 25.9989 4.04252C29.5867 4.04252 32.4986 6.95452 32.4986 10.5425C32.4986 12.4937 31.6383 14.244 30.2757 15.4364C30.4293 15.4931 30.5806 15.5522 30.7307 15.6149C32.0436 13.9592 33.8328 12.6556 35.9057 11.891C34.5431 10.6997 33.6816 8.94825 33.6816 6.99707C33.6816 3.40907 36.5934 0.49707 40.1813 0.49707C43.7691 0.49707 46.681 3.40907 46.681 6.99707C46.681 8.94825 45.8195 10.6985 44.4569 11.891C48.8767 13.5207 51.999 17.6003 51.999 22.3453C51.999 23.7553 51.1126 24.9879 49.483 25.879C46.7626 27.3657 41.7507 27.9507 37.3604 27.5512C36.8913 28.3572 36.0699 29.0593 34.9413 29.61C32.7728 30.6689 29.3882 31.2243 25.9989 31.2243C22.6108 31.2243 19.2262 30.6689 17.0576 29.61C15.9279 29.0593 15.1065 28.3572 14.6374 27.5512ZM40.1813 11.1334C42.4645 11.1334 44.3175 9.28034 44.3175 6.99707C44.3175 4.7138 42.4645 2.86071 40.1813 2.86071C37.8981 2.86071 36.0451 4.7138 36.0451 6.99707C36.0451 9.28034 37.8981 11.1334 40.1813 11.1334ZM25.9989 17.0425C24.3432 17.0425 22.7833 17.4431 21.4266 18.1463C18.5242 19.652 16.5447 22.5498 16.5447 25.8908C16.5447 25.9487 16.5507 26.0054 16.5613 26.061C16.5648 26.0834 16.5684 26.1059 16.5719 26.1295C16.7043 26.7086 17.32 27.1081 18.094 27.4863C20.0097 28.4199 23.0066 28.8607 25.9989 28.8607C28.9923 28.8607 31.9893 28.4199 33.9049 27.4863C34.6778 27.1081 35.2947 26.7086 35.427 26.1283C35.4294 26.1059 35.4329 26.0834 35.4377 26.0598C35.4483 26.0054 35.453 25.9487 35.453 25.8908C35.453 22.551 33.4748 19.652 30.5723 18.1463C29.2157 17.4431 27.6557 17.0425 25.9989 17.0425ZM11.8177 11.1334C14.1008 11.1334 15.9539 9.28034 15.9539 6.99707C15.9539 4.7138 14.1008 2.86071 11.8177 2.86071C9.53568 2.86071 7.68149 4.7138 7.68149 6.99707C7.68149 9.28034 9.53568 11.1334 11.8177 11.1334Z" fill="#37405E"/>
</svg>
