<svg width="52" height="53" viewBox="0 0 52 53" fill="none" xmlns="http://www.w3.org/2000/svg">
<path d="M0.662077 15.392C4.52279 16.5443 13.9704 20.1988 13.5219 28.1866C13.4306 29.7797 12.7329 31.2774 11.572 32.3722C6.14578 37.3959 2.24248 43.8448 0.30835 50.9819C0.236508 51.2612 0.29853 51.5581 0.47622 51.7852C0.653911 52.0124 0.927114 52.1441 1.21541 52.1416L27.3203 52.136C27.7485 52.1334 28.1193 51.8385 28.2182 51.4219C32.6342 33.479 46.9015 29.167 51.2721 28.2572C51.6988 28.1657 52.0027 27.7874 52 27.351V15.3047C52.0001 15.0317 51.8802 14.7726 51.672 14.596C51.4638 14.4195 51.1884 14.3435 50.9193 14.3882C45.6015 15.329 40.3723 16.7155 35.2869 18.5331V7.45161C37.0978 6.98408 38.2785 5.24297 38.0428 3.38763C37.8072 1.5323 36.2286 0.141602 34.3584 0.141602C32.4881 0.141602 30.9096 1.5323 30.674 3.38763C30.4384 5.24297 31.619 6.98408 33.4299 7.45161V19.1895C33.0205 19.29 32.5953 19.0985 32.3992 18.7253C27.6101 9.34105 7.09377 7.84988 0.959158 7.6141C0.707662 7.60583 0.463506 7.69989 0.282714 7.875C0.101922 8.05 -0.000102301 8.29095 1.06751e-06 8.54264V14.5054C-0.000619144 14.9151 0.269069 15.2762 0.662077 15.392ZM43.5413 22.0679C44.7791 21.728 46.0046 21.4421 47.1829 21.2174C47.5121 21.1467 47.8539 21.2599 48.0759 21.513C48.2979 21.7662 48.3654 22.1198 48.2524 22.437C48.1393 22.7542 47.8633 22.9853 47.531 23.0409C46.4001 23.2572 45.2228 23.5321 44.0324 23.8589C43.9519 23.881 43.8689 23.8921 43.7855 23.8923C43.32 23.8926 42.9263 23.5483 42.8645 23.087C42.8028 22.6257 43.0922 22.1899 43.5413 22.0679ZM34.8766 25.2981C36.1319 24.6973 37.4076 24.1477 38.6704 23.6668C38.9828 23.5367 39.3413 23.5871 39.6059 23.7979C39.8705 24.0089 39.9994 24.347 39.9423 24.6806C39.8853 25.0142 39.6513 25.2903 39.3315 25.4012C38.1171 25.8654 36.8877 26.3937 35.6779 26.9721C35.5532 27.0329 35.4164 27.0647 35.2777 27.065C34.8456 27.0633 34.4718 26.7637 34.3759 26.3423C34.2801 25.9209 34.4877 25.4891 34.8767 25.3008V25.2981H34.8766ZM26.5877 30.3528C27.7341 29.4674 28.9248 28.6409 30.1551 27.8765C30.591 27.6063 31.1634 27.7406 31.4337 28.1764C31.7039 28.6123 31.5696 29.1846 31.1338 29.4549C29.9577 30.1844 28.8191 30.9727 27.7224 31.8169C27.3162 32.1213 26.7408 32.043 26.4307 31.6412C26.1205 31.2394 26.1905 30.6631 26.5878 30.3471L26.5877 30.3528ZM23.9313 33.8401C24.2938 34.2028 24.2938 34.7905 23.9313 35.153C22.6733 36.4016 21.5133 37.745 20.4615 39.1715C20.1572 39.5846 19.5756 39.6727 19.1626 39.3683C18.7495 39.064 18.6613 38.4825 18.9658 38.0694C20.0748 36.5669 21.2971 35.1515 22.6222 33.8355C22.9856 33.4768 23.5704 33.4789 23.9313 33.8401ZM17.7512 16.2676C18.0286 15.8363 18.6031 15.7117 19.0344 15.989C20.4435 16.8688 21.728 17.934 22.8533 19.156C23.0829 19.4024 23.1613 19.7536 23.0579 20.0742C22.9545 20.3946 22.6858 20.6341 22.3555 20.6998C22.0253 20.7656 21.6853 20.6474 21.4671 20.391C20.4541 19.2949 19.2986 18.3396 18.0316 17.5508C17.8243 17.4178 17.6781 17.2079 17.6256 16.9673C17.573 16.7266 17.6181 16.4749 17.7512 16.2676ZM16.9953 42.8948C17.2156 43.0053 17.3829 43.1988 17.4604 43.4326C17.5379 43.6665 17.5192 43.9215 17.4086 44.1417C16.5481 45.8623 15.8318 47.6515 15.2674 49.4907C15.1741 49.8129 14.9141 50.0598 14.5876 50.1363C14.2609 50.2129 13.9184 50.1073 13.6916 49.8602C13.4647 49.613 13.3888 49.2627 13.4931 48.9438C14.0877 47.0059 14.8424 45.1207 15.7493 43.3079C15.9794 42.8499 16.5372 42.6649 16.9953 42.8948ZM10.3937 13.0206C10.5618 12.5364 11.0904 12.28 11.5748 12.4477C12.8413 12.8851 14.0725 13.3762 15.2368 13.9175C15.5381 14.0566 15.7421 14.346 15.7722 14.6763C15.8023 15.0067 15.6538 15.3282 15.3827 15.5194C15.1116 15.7106 14.759 15.7428 14.4579 15.6036C13.3502 15.0921 12.1756 14.6204 10.9676 14.2016C10.4829 14.034 10.226 13.5053 10.3937 13.0206ZM2.98611 10.3791C4.26933 10.5647 5.54045 10.8052 6.7633 11.0838C7.08954 11.1548 7.35251 11.3955 7.45205 11.7141C7.55159 12.0328 7.47252 12.3803 7.2448 12.6244C7.01707 12.8685 6.67585 12.9716 6.35107 12.8944C5.17463 12.627 3.95085 12.3985 2.71508 12.2157C2.21819 12.1302 1.88028 11.6638 1.95387 11.1651C2.02747 10.6662 2.48571 10.3174 2.98611 10.3791Z" fill="#37405E"/>
</svg>
