<svg width="52" height="53" viewBox="0 0 52 53" fill="none" xmlns="http://www.w3.org/2000/svg">
<path d="M19.5 40.1535V42.6284C19.5 48.0137 26.7751 52.3784 35.75 52.3784C44.7249 52.3784 52 48.0137 52 42.6284V40.1535C48.5355 43.6294 42.6091 45.8784 35.75 45.8784C28.8909 45.8784 22.9645 43.6294 19.5 40.1535ZM19.5 32.8784C19.5 38.2637 26.7751 42.6284 35.75 42.6284C44.7249 42.6284 52 38.2637 52 32.8784C52 27.4932 44.7249 23.1284 35.75 23.1284C26.7751 23.1284 19.5 27.4932 19.5 32.8784ZM32.4837 20.0669C32.4854 20.0035 32.5 19.9418 32.5 19.8784V17.4035C29.0355 20.8794 23.1091 23.1284 16.25 23.1284C9.39087 23.1284 3.4645 20.8794 0 17.4035V19.8784C0 25.2637 7.27513 29.6284 16.25 29.6284C16.4596 29.6284 16.6644 29.6138 16.8724 29.6089C18.7411 24.6397 24.7796 20.9022 32.4837 20.0669ZM16.25 19.8784C25.2249 19.8784 32.5 15.5137 32.5 10.1284C32.5 4.74317 25.2249 0.378418 16.25 0.378418C7.27513 0.378418 0 4.74317 0 10.1284C0 15.5137 7.27513 19.8784 16.25 19.8784ZM0 29.6284C0 35.0137 7.27513 39.3784 16.25 39.3784V32.8784C9.39087 32.8784 3.4645 30.6294 0 27.1535V29.6284Z" fill="#37405E"/>
</svg>
