<svg width="52" height="53" viewBox="0 0 52 53" fill="none" xmlns="http://www.w3.org/2000/svg">
<path fill-rule="evenodd" clip-rule="evenodd" d="M10.0743 16.5808H40.9257C41.2105 16.5813 41.4834 16.6958 41.6847 16.8991C41.8861 17.1023 41.9995 17.3779 42 17.6654V20.0365C41.9995 20.324 41.8861 20.5996 41.6847 20.8028C41.4834 21.0061 41.2105 21.1205 40.9257 21.1211H10.0743C9.78954 21.1205 9.5166 21.0061 9.31525 20.8028C9.1139 20.5996 9.00054 20.324 9 20.0365V17.6654C9.00054 17.3779 9.1139 17.1023 9.31525 16.8991C9.5166 16.6958 9.78954 16.5813 10.0743 16.5808ZM38.9507 15.0624C38.3783 13.0651 37.3774 11.2194 36.0189 9.65663C34.6604 8.09383 32.9777 6.85218 31.0903 6.01988V11.3098C31.0903 11.5112 31.011 11.7043 30.87 11.8467C30.729 11.989 30.5377 12.069 30.3383 12.069C30.1388 12.069 29.9475 11.989 29.8065 11.8467C29.6655 11.7043 29.5863 11.5112 29.5863 11.3098V3.84305C29.5846 2.98759 29.2473 2.16764 28.6481 1.56275C28.0489 0.957861 27.2367 0.617328 26.3894 0.615723H24.6103C23.763 0.617385 22.9508 0.95794 22.3517 1.56282C21.7525 2.1677 21.4152 2.98762 21.4135 3.84305V11.3096C21.4135 11.511 21.3343 11.7041 21.1933 11.8464C21.0522 11.9888 20.861 12.0688 20.6615 12.0688C20.4621 12.0688 20.2708 11.9888 20.1298 11.8464C19.9887 11.7041 19.9095 11.511 19.9095 11.3096V6.01988C18.0223 6.85233 16.3398 8.09405 14.9814 9.65686C13.623 11.2197 12.6221 13.0652 12.0498 15.0625L38.9507 15.0624ZM28.0227 27.3622H22.9774C21.056 28.6347 18.9496 29.5967 16.7344 30.2136V38.0817C16.7344 42.6748 21.5095 47.1525 25.5001 48.6562C29.4906 47.152 34.2657 42.6744 34.2657 38.0817V30.2136C32.0505 29.5967 29.9441 28.6347 28.0227 27.3622ZM31.7076 35.1453L23.2333 42.0924C23.1516 42.1593 23.0568 42.2081 22.9552 42.2356C22.8536 42.2632 22.7473 42.2688 22.6434 42.2522C22.5395 42.2356 22.4402 42.1972 22.3519 42.1393C22.2637 42.0815 22.1885 42.0056 22.1312 41.9165L19.143 37.4237C19.0324 37.2569 18.9919 37.0526 19.0304 36.8558C19.069 36.6589 19.1834 36.4855 19.3486 36.3738C19.5138 36.2621 19.7161 36.2212 19.9112 36.2602C20.1062 36.2991 20.2779 36.4147 20.3885 36.5814L22.9251 40.3954L30.7616 33.9711C30.8377 33.906 30.9259 33.8568 31.0211 33.8265C31.1162 33.7963 31.2164 33.7855 31.3157 33.7948C31.4151 33.8041 31.5116 33.8333 31.5995 33.8807C31.6875 33.9282 31.7653 33.9929 31.8282 34.071C31.8911 34.1492 31.9379 34.2392 31.9659 34.3359C31.994 34.4325 32.0026 34.5339 31.9913 34.6339C31.98 34.734 31.949 34.8308 31.9002 34.9186C31.8514 35.0065 31.7863 35.0835 31.7076 35.1453ZM37.1978 27.022L35.7073 26.6676C33.6316 26.1744 31.6715 25.2484 29.8947 24.0672C29.5149 23.8147 29.2441 23.5667 28.8204 23.5667H22.1805C21.7563 23.5667 21.4855 23.8147 21.1062 24.0672C19.3295 25.2484 17.3692 26.1744 15.2942 26.6676L13.8037 27.022C13.5671 27.0762 13.356 27.2104 13.2053 27.4025C13.0547 27.5945 12.9736 27.8327 12.9756 28.0777V38.0817C12.9756 44.4166 18.8722 50.3513 24.5147 52.3289C25.6059 52.7113 25.3966 52.7113 26.4878 52.3289C32.1291 50.3513 38.0257 44.4166 38.0257 38.0817V28.0773C38.0277 27.8323 37.9466 27.594 37.796 27.402C37.6453 27.21 37.4344 27.0762 37.1978 27.022ZM35.7697 38.0817C35.7697 43.4134 30.4491 48.5232 25.7493 50.1729C25.5899 50.23 25.416 50.2307 25.2562 50.1749C20.5543 48.5271 15.2304 43.4149 15.2304 38.082V29.6231C15.2306 29.4518 15.2882 29.2857 15.3938 29.1516C15.4994 29.0176 15.6468 28.9235 15.812 28.8847C18.118 28.3367 20.3123 27.3164 22.2909 26.0095C22.424 25.902 22.5894 25.8436 22.7598 25.8438H28.2402C28.3867 25.8448 28.5297 25.8891 28.6515 25.9714C30.6344 27.2895 32.8363 28.3203 35.151 28.8757C35.3246 28.9072 35.4817 28.9993 35.5949 29.136C35.708 29.2726 35.77 29.445 35.7699 29.6231L35.7697 38.0817Z" fill="#37405E"/>
</svg>
