<svg width="52" height="53" viewBox="0 0 52 53" fill="none" xmlns="http://www.w3.org/2000/svg">
<path fill-rule="evenodd" clip-rule="evenodd" d="M3.04688 39.2507C1.32031 39.0474 0 37.3194 0 35.2864C0 33.965 0.609375 32.6435 1.52344 31.932C1.42188 31.627 1.42188 31.3221 1.42188 31.1188C1.42188 28.8825 2.94531 27.0529 4.875 27.0529C6.70312 27.0529 8.22656 28.8825 8.22656 31.1188C8.22656 31.3221 8.22656 31.627 8.125 31.932C9.14062 32.6435 9.64844 33.965 9.64844 35.2864C9.64844 37.3194 8.32812 39.0474 6.70312 39.2507V38.2342C6.70312 37.2177 5.78906 36.4045 4.875 36.4045C3.85938 36.4045 3.04688 37.2177 3.04688 38.2342V39.2507Z" fill="#37405E"/>
<path fill-rule="evenodd" clip-rule="evenodd" d="M45.2969 39.2507C43.6719 39.0474 42.3516 37.3194 42.3516 35.2864C42.3516 33.965 42.8594 32.6435 43.875 31.932C43.7734 31.627 43.7734 31.3221 43.7734 31.1188C43.7734 28.8825 45.2969 27.0529 47.125 27.0529C49.0547 27.0529 50.5781 28.8825 50.5781 31.1188C50.5781 31.3221 50.5781 31.627 50.4766 31.932C51.3906 32.6435 52 33.965 52 35.2864C52 37.3194 50.6797 39.0474 48.9531 39.2507V38.2342C48.9531 37.2177 48.1406 36.4045 47.125 36.4045C46.2109 36.4045 45.2969 37.2177 45.2969 38.2342V39.2507Z" fill="#37405E"/>
<path fill-rule="evenodd" clip-rule="evenodd" d="M36.3594 45.2479H31.8906V34.0666C31.8906 33.7617 31.5859 33.4567 31.2812 33.4567H20.7188C20.4141 33.4567 20.1094 33.7617 20.1094 34.0666V45.2479H15.6406C15.2344 45.2479 15.0312 44.943 15.0312 44.638V28.6792H11.6797C11.375 28.6792 11.1719 28.5776 11.0703 28.2726C10.9688 28.0694 11.0703 27.7644 11.2734 27.5611L25.5938 15.9732C25.7969 15.7699 26.2031 15.7699 26.4062 15.9732L40.7266 27.5611C40.9297 27.7644 41.0312 28.0694 40.9297 28.2726C40.8281 28.5776 40.625 28.6792 40.3203 28.6792H36.9688V44.638C36.9688 44.943 36.7656 45.2479 36.3594 45.2479ZM30.6719 45.2479H26.6094V34.6765H30.6719V45.2479ZM25.3906 45.2479H21.3281V34.6765H25.3906V45.2479ZM26 29.6957C23.7656 29.6957 22.0391 27.9677 22.0391 25.7314C22.0391 23.5968 23.7656 21.7672 26 21.7672C28.2344 21.7672 29.9609 23.5968 29.9609 25.7314C29.9609 27.9677 28.2344 29.6957 26 29.6957ZM26 22.9869C24.4766 22.9869 23.2578 24.2067 23.2578 25.7314C23.2578 27.2562 24.4766 28.4759 26 28.4759C27.5234 28.4759 28.7422 27.2562 28.7422 25.7314C28.7422 24.2067 27.5234 22.9869 26 22.9869Z" fill="#37405E"/>
<path fill-rule="evenodd" clip-rule="evenodd" d="M47.125 45.2479C46.8203 45.2479 46.5156 44.943 46.5156 44.638V38.2342C46.5156 37.9292 46.8203 37.6243 47.125 37.6243C47.5312 37.6243 47.7344 37.9292 47.7344 38.2342V44.638C47.7344 44.943 47.5312 45.2479 47.125 45.2479Z" fill="#37405E"/>
<path fill-rule="evenodd" clip-rule="evenodd" d="M4.875 45.2479C4.46875 45.2479 4.26562 44.943 4.26562 44.638V38.2342C4.26562 37.9292 4.46875 37.6243 4.875 37.6243C5.17969 37.6243 5.48438 37.9292 5.48438 38.2342V44.638C5.48438 44.943 5.17969 45.2479 4.875 45.2479Z" fill="#37405E"/>
<path fill-rule="evenodd" clip-rule="evenodd" d="M44.7891 23.4952C44.4844 23.4952 44.1797 23.1902 44.1797 22.8853V21.7672H43.1641C42.7578 21.7672 42.5547 21.5639 42.5547 21.1573C42.5547 20.8523 42.7578 20.5474 43.1641 20.5474H44.1797V19.5309C44.1797 19.2259 44.4844 18.921 44.7891 18.921C45.0938 18.921 45.3984 19.2259 45.3984 19.5309V20.5474H46.4141C46.7188 20.5474 47.0234 20.8523 47.0234 21.1573C47.0234 21.5639 46.7188 21.7672 46.4141 21.7672H45.3984V22.8853C45.3984 23.1902 45.0938 23.4952 44.7891 23.4952Z" fill="#37405E"/>
<path fill-rule="evenodd" clip-rule="evenodd" d="M12.6953 20.1408C12.2891 20.1408 12.0859 19.8358 12.0859 19.5309V18.5144H10.9688C10.6641 18.5144 10.3594 18.2095 10.3594 17.9045C10.3594 17.5996 10.6641 17.2946 10.9688 17.2946H12.0859V16.2781C12.0859 15.8716 12.2891 15.6683 12.6953 15.6683C13 15.6683 13.3047 15.8716 13.3047 16.2781V17.2946H14.3203C14.625 17.2946 14.9297 17.5996 14.9297 17.9045C14.9297 18.2095 14.625 18.5144 14.3203 18.5144H13.3047V19.5309C13.3047 19.8358 13 20.1408 12.6953 20.1408Z" fill="#37405E"/>
<path fill-rule="evenodd" clip-rule="evenodd" d="M24.1719 13.432C23.8672 13.432 23.5625 13.127 23.5625 12.8221V11.8056H22.5469C22.2422 11.8056 21.9375 11.5007 21.9375 11.1957C21.9375 10.7891 22.2422 10.5858 22.5469 10.5858H23.5625V9.4677C23.5625 9.16276 23.8672 8.85781 24.1719 8.85781C24.5781 8.85781 24.7812 9.16276 24.7812 9.4677V10.5858H25.8984C26.2031 10.5858 26.5078 10.7891 26.5078 11.1957C26.5078 11.5007 26.2031 11.8056 25.8984 11.8056H24.7812V12.8221C24.7812 13.127 24.5781 13.432 24.1719 13.432Z" fill="#37405E"/>
<path fill-rule="evenodd" clip-rule="evenodd" d="M9.34375 12.8221C9.03906 12.8221 8.73438 12.5172 8.73438 12.2122V11.0941H7.71875C7.41406 11.0941 7.10938 10.8908 7.10938 10.4842C7.10938 10.1792 7.41406 9.8743 7.71875 9.8743H8.73438V8.85781C8.73438 8.55287 9.03906 8.24792 9.34375 8.24792C9.64844 8.24792 9.95312 8.55287 9.95312 8.85781V9.8743H10.9688C11.375 9.8743 11.5781 10.1792 11.5781 10.4842C11.5781 10.8908 11.375 11.0941 10.9688 11.0941H9.95312V12.2122C9.95312 12.5172 9.64844 12.8221 9.34375 12.8221Z" fill="#37405E"/>
<path fill-rule="evenodd" clip-rule="evenodd" d="M3.55469 23.1902C3.14844 23.1902 2.94531 22.8853 2.94531 22.5803V21.5639H1.82812C1.52344 21.5639 1.21875 21.2589 1.21875 20.954C1.21875 20.649 1.52344 20.3441 1.82812 20.3441H2.94531V19.3276C2.94531 18.921 3.14844 18.7177 3.55469 18.7177C3.85938 18.7177 4.16406 18.921 4.16406 19.3276V20.3441H5.17969C5.48438 20.3441 5.78906 20.649 5.78906 20.954C5.78906 21.2589 5.48438 21.5639 5.17969 21.5639H4.16406V22.5803C4.16406 22.8853 3.85938 23.1902 3.55469 23.1902Z" fill="#37405E"/>
<path fill-rule="evenodd" clip-rule="evenodd" d="M39.7109 15.0584C39.4062 15.0584 39.1016 14.8551 39.1016 14.4485V13.432H38.0859C37.6797 13.432 37.4766 13.127 37.4766 12.8221C37.4766 12.5172 37.6797 12.2122 38.0859 12.2122H39.1016V11.1957C39.1016 10.7891 39.4062 10.5858 39.7109 10.5858C40.0156 10.5858 40.3203 10.7891 40.3203 11.1957V12.2122H41.3359C41.6406 12.2122 41.9453 12.5172 41.9453 12.8221C41.9453 13.127 41.6406 13.432 41.3359 13.432H40.3203V14.4485C40.3203 14.8551 40.0156 15.0584 39.7109 15.0584Z" fill="#37405E"/>
<path fill-rule="evenodd" clip-rule="evenodd" d="M33.0078 14.8551C32.6016 14.8551 32.3984 14.5501 32.3984 14.2452V13.127H31.2812C30.9766 13.127 30.6719 12.9237 30.6719 12.5172C30.6719 12.2122 30.9766 11.9073 31.2812 11.9073H32.3984V10.8908C32.3984 10.5858 32.6016 10.2809 33.0078 10.2809C33.3125 10.2809 33.6172 10.5858 33.6172 10.8908V11.9073H34.6328C34.9375 11.9073 35.2422 12.2122 35.2422 12.5172C35.2422 12.9237 34.9375 13.127 34.6328 13.127H33.6172V14.2452C33.6172 14.5501 33.3125 14.8551 33.0078 14.8551Z" fill="#37405E"/>
</svg>
