<svg width="52" height="52" viewBox="0 0 52 52" fill="none" xmlns="http://www.w3.org/2000/svg">
<path fill-rule="evenodd" clip-rule="evenodd" d="M2 9.97444L26 1L50 9.97342C50 14.7681 49.2392 19.3955 47.8323 23.7446C47.7444 23.7099 47.6534 23.6783 47.5625 23.6487V21.282C47.5625 19.5862 46.8781 17.969 45.6594 16.7708C44.4437 15.5696 42.8011 14.8956 41.08 14.8956C39.3588 14.8956 37.7173 15.5696 36.4975 16.7708C35.2818 17.969 34.5944 19.5862 34.5944 21.282V23.6487C32.6438 24.2677 31.2224 26.0766 31.2224 28.2007V38.0602C31.2224 40.5861 33.2288 42.6642 35.7491 42.8325C32.8381 45.602 29.5632 48.0156 26 50C22.1111 47.8352 18.5685 45.1584 15.4674 42.0677H22.1235V33.9274C22.1235 30.2901 19.6736 27.1912 16.314 26.1572C17.3394 25.0427 17.9649 23.5641 17.9649 21.9438C17.9649 18.4798 15.1128 15.6705 11.594 15.6705C8.0752 15.6705 5.22626 18.4808 5.22626 21.9438C5.22626 23.5641 5.85166 25.0427 6.87401 26.1572C6.32201 26.3275 5.79274 26.5539 5.29655 26.8282C3.16708 21.6083 2.00103 15.9214 2.00103 9.97241L2 9.97444ZM36.0757 24.851H46.0832C47.9543 24.851 49.4873 26.3591 49.4873 28.2017V38.0613C49.4873 39.908 47.9543 41.4151 46.0832 41.4151H36.0757C34.2047 41.4151 32.6748 39.9069 32.6748 38.0613V28.2017C32.6748 26.3581 34.2047 24.851 36.0757 24.851ZM41.081 16.3262C42.4641 16.3262 43.7243 16.885 44.635 17.7813C45.5488 18.6817 46.1122 19.9197 46.1122 21.283V23.4213H44.6639V21.283C44.6639 20.3133 44.2587 19.4312 43.6095 18.7919C42.9603 18.1525 42.0641 17.7558 41.081 17.7558C40.0979 17.7558 39.2007 18.1525 38.5525 18.7919C37.9002 19.4312 37.4981 20.3143 37.4981 21.283V23.4213H36.0468V21.283C36.0468 19.9197 36.6133 18.6817 37.524 17.7813C38.4378 16.884 39.6948 16.3262 41.081 16.3262ZM13.8641 27.2208C17.6093 27.2208 20.6753 30.2391 20.6753 33.9284V40.6391H2.51376V33.9284C2.51376 30.2391 5.57772 27.2208 9.32188 27.2208H13.8641ZM11.593 17.1012C14.3096 17.1012 16.5125 19.2691 16.5125 21.9458C16.5125 24.6225 14.3096 26.7925 11.593 26.7925C8.87634 26.7925 6.67554 24.6225 6.67554 21.9458C6.67554 19.2691 8.87841 17.1012 11.593 17.1012ZM38.9474 23.4213H43.2126V21.283C43.2126 20.7242 42.9831 20.198 42.5841 19.8014C42.1819 19.4078 41.6475 19.1855 41.08 19.1855C40.5125 19.1855 39.976 19.4088 39.5759 19.8014C39.1738 20.198 38.9474 20.7242 38.9474 21.283V23.4213ZM26 6.23212C27.8038 6.23212 29.2635 7.66991 29.2635 9.44726C29.2635 10.5903 28.6587 11.5917 27.748 12.1617V22.0029H24.253V12.1617C23.3392 11.5917 22.7376 10.5903 22.7376 9.44726C22.7376 7.67093 24.1972 6.23212 26.001 6.23212H26Z" fill="#37405E"/>
</svg>
