<svg width="52" height="53" viewBox="0 0 52 53" fill="none" xmlns="http://www.w3.org/2000/svg">
<path d="M22.1794 27.9229V43.8978H16.4912V28.189C16.4912 28.0439 16.6122 27.9229 16.7575 27.9229H22.1794Z" fill="#37405E"/>
<path d="M15.3052 32.5667V43.8978H9.61699V32.8327C9.61699 32.6876 9.73801 32.5667 9.88324 32.5667H15.3052Z" fill="#37405E"/>
<path d="M8.41884 42.7127V43.8978H1.59302C1.26626 43.8978 1 43.6318 1 43.3053V1.08853C1 0.762018 1.26626 0.495972 1.59302 0.495972C1.91979 0.495972 2.18605 0.762018 2.18605 1.08853V42.7127H8.41884Z" fill="#37405E"/>
<path d="M37.7795 2.27365V2.32202L37.7674 6.62713C37.7674 6.95365 37.4891 7.21969 37.1744 7.21969C36.8477 7.21969 36.5814 6.94155 36.5814 6.62713V4.32946C33.8462 8.39272 29.7314 12.855 24.9993 16.8457C19.4079 21.562 13.7924 24.9723 9.1934 26.4718C9.13289 26.496 9.07238 26.5081 9.01187 26.5081C8.75771 26.5081 8.52776 26.3388 8.44305 26.0969C8.34623 25.7946 8.51566 25.456 8.81822 25.3471C17.3989 22.5899 29.7314 12.4923 35.6979 3.54341L33.3742 4.48667C33.0838 4.6076 32.7207 4.46248 32.5997 4.17225C32.4786 3.86993 32.6239 3.51923 32.9143 3.3983L36.9445 1.75365C36.9687 1.75365 36.9808 1.74155 36.9929 1.74155C37.005 1.74155 37.0292 1.72946 37.0413 1.72946C37.126 1.71737 37.2107 1.71737 37.2833 1.72946C37.2954 1.72946 37.2954 1.72946 37.3075 1.74155C37.3196 1.74155 37.3317 1.74155 37.3439 1.75365C37.356 1.75365 37.3681 1.76574 37.3923 1.76574C37.4044 1.76574 37.4165 1.77783 37.4286 1.78993C37.4407 1.78993 37.4528 1.80202 37.4649 1.81411C37.477 1.8262 37.4891 1.8262 37.5012 1.8383C37.5133 1.85039 37.5375 1.86248 37.5496 1.87458L37.5617 1.88667C37.5738 1.89876 37.598 1.91086 37.6101 1.93504C37.6222 1.94713 37.6343 1.95923 37.6464 1.98341C37.6464 1.98341 37.6464 1.99551 37.6585 1.99551C37.6827 2.03179 37.7069 2.08016 37.7311 2.12853C37.7432 2.15272 37.7432 2.1769 37.7553 2.18899C37.7553 2.20109 37.7674 2.22527 37.7674 2.23737V2.32202L37.7795 2.27365Z" fill="#37405E"/>
<path d="M12.921 4.01504C9.54438 4.01504 6.7971 6.76016 6.7971 10.1341C6.7971 13.5081 9.54438 16.2532 12.921 16.2532C16.2976 16.2532 19.0448 13.5081 19.0448 10.1341C19.0448 6.76016 16.2976 4.01504 12.921 4.01504ZM12.921 9.55365C14.107 9.55365 15.0631 10.509 15.0631 11.6941C15.0631 12.6616 14.4096 13.496 13.514 13.762V14.7416C13.514 15.0681 13.2477 15.3341 12.921 15.3341C12.5942 15.3341 12.328 15.0681 12.328 14.7416V13.762C11.4445 13.496 10.7788 12.6857 10.7788 11.6941C10.7788 11.3676 11.0451 11.1016 11.3719 11.1016C11.6986 11.1016 11.9649 11.3676 11.9649 11.6941C11.9649 12.2262 12.3885 12.6495 12.921 12.6495C13.4535 12.6495 13.8771 12.2262 13.8771 11.6941C13.8771 11.162 13.4535 10.7388 12.921 10.7388C11.7349 10.7388 10.7788 9.78341 10.7788 8.5983C10.7788 7.63086 11.4324 6.79644 12.328 6.53039V5.55086C12.328 5.22434 12.5942 4.9583 12.921 4.9583C13.2477 4.9583 13.514 5.22434 13.514 5.55086V6.53039C14.3975 6.79644 15.0631 7.60667 15.0631 8.5983C15.0631 8.92481 14.7969 9.19086 14.4701 9.19086C14.1433 9.19086 13.8771 8.92481 13.8771 8.5983C13.8771 8.0662 13.4535 7.64295 12.921 7.64295C12.4006 7.64295 11.9649 8.0662 11.9649 8.5983C11.9649 9.1183 12.3885 9.55365 12.921 9.55365Z" fill="#37405E"/>
<path d="M29.0657 34.5499C28.0249 36.4002 27.4319 38.5406 27.4319 40.802C27.4319 41.8662 27.565 42.8941 27.8071 43.8857H23.3775V22.3843C23.3775 22.2392 23.4986 22.1183 23.6438 22.1183H29.0778L29.0657 34.5499Z" fill="#37405E"/>
<path d="M35.94 15.8662V28.6969C33.6889 29.5192 31.7162 30.9341 30.2518 32.7843V16.1443C30.2518 15.9992 30.3728 15.8783 30.518 15.8783L35.94 15.8662Z" fill="#37405E"/>
<path d="M42.8142 10.3518V28.189C41.9912 28.0197 41.1561 27.935 40.2969 27.935C39.1955 27.935 38.1426 28.0802 37.1139 28.322V10.3518C37.1139 10.2067 37.2349 10.0857 37.3802 10.0857H42.5479C42.7174 10.0978 42.8142 10.2188 42.8142 10.3518Z" fill="#37405E"/>
<path d="M40.309 29.1322C33.8583 29.1322 28.6179 34.3685 28.6179 40.8141C28.6179 47.2597 33.8583 52.496 40.309 52.496C46.7596 52.496 52 47.2597 52 40.8141C52 34.3685 46.7596 29.1322 40.309 29.1322ZM47.8972 40.0885C47.7157 40.149 47.5463 40.1732 47.3647 40.1732C47.3284 40.1732 47.3042 40.1732 47.2679 40.1732V48.0941C47.2679 48.7109 46.7717 49.2067 46.1545 49.2067H34.4877C33.8704 49.2067 33.3742 48.7109 33.3742 48.0941V40.1732C33.1564 40.1853 32.9506 40.1611 32.7449 40.0885C32.2608 39.9313 31.8614 39.5927 31.6436 39.1332C31.2321 38.2746 31.5467 37.2346 32.3818 36.7629L39.5465 32.6271C40.0306 32.3369 40.6478 32.3369 41.1319 32.6271L48.2966 36.7629C49.1196 37.2346 49.4464 38.2746 49.0349 39.1332C48.7686 39.5927 48.3813 39.9434 47.8972 40.0885Z" fill="#37405E"/>
<path d="M47.9336 38.6132C47.8488 38.7825 47.7157 38.9034 47.5463 38.9397C47.3768 39.0002 47.1953 38.976 47.038 38.8792L47.0017 38.855L46.9411 38.8188L41.144 35.4932C40.6357 35.2029 39.9943 35.2029 39.486 35.4932L33.6889 38.8309L33.6284 38.8671L33.5921 38.8913C33.4347 38.9881 33.2653 39.0002 33.0838 38.9518C32.9022 38.8913 32.7812 38.7704 32.6965 38.6253C32.5513 38.335 32.6602 37.9602 32.9627 37.7909L40.1274 33.655C40.2606 33.5825 40.4179 33.5825 40.5268 33.655L47.6915 37.7909C47.9699 37.9602 48.0788 38.3229 47.9336 38.6132Z" fill="#37405E"/>
<path d="M39.2318 44.0671H41.374V48.0095H39.2318V44.0671Z" fill="#37405E"/>
<path d="M40.5389 36.5332C40.3816 36.4485 40.2121 36.4485 40.0669 36.5332L34.5361 39.7257V48.0216H38.0458V43.7406C38.0458 43.269 38.421 42.882 38.9051 42.882H41.7129C42.1849 42.882 42.5721 43.2569 42.5721 43.7406V48.0216H46.0698V39.7257L40.5389 36.5332ZM40.309 41.7332C39.1713 41.7332 38.2515 40.8141 38.2515 39.6653C38.2515 38.5164 39.1713 37.6095 40.309 37.6095C41.4466 37.6095 42.3785 38.5285 42.3785 39.6653C42.3664 40.8141 41.4466 41.7332 40.309 41.7332Z" fill="#37405E"/>
<path d="M41.1523 39.9094C41.2645 39.435 40.9759 38.9608 40.5076 38.8502C40.0393 38.7396 39.5688 39.0345 39.4566 39.5089C39.3443 39.9833 39.6329 40.4575 40.1012 40.5681C40.5695 40.6787 41.04 40.3838 41.1523 39.9094Z" fill="#37405E"/>
</svg>
