<svg width="52" height="53" viewBox="0 0 52 53" fill="none" xmlns="http://www.w3.org/2000/svg">
<path d="M26 0.744019C11.6306 0.744019 0 12.3726 0 26.744C0 41.1136 11.6286 52.744 26 52.744C40.3695 52.744 52 41.1155 52 26.744C52 12.3746 40.3715 0.744019 26 0.744019ZM22.6863 46.3499C18.9058 45.7156 15.4873 44.0149 12.7507 41.567L22.6863 31.6314V46.3499ZM22.6863 22.2588L8.59142 36.3536C7.01572 33.5051 6.11765 30.2297 6.11765 26.744C6.11765 16.8925 13.283 8.71592 22.6863 7.13808V22.2588ZM29.3137 46.3499V31.6314L39.2493 41.567C36.5126 44.0149 33.0942 45.7156 29.3137 46.3499ZM43.4086 36.3536L29.3137 22.2588V7.13808C38.717 8.71592 45.8824 16.8925 45.8824 26.744C45.8824 30.2297 44.9843 33.5051 43.4086 36.3536Z" fill="#37405E"/>
</svg>
