<svg width="24" height="24" viewBox="0 0 24 24" fill="none" xmlns="http://www.w3.org/2000/svg">
<path fill-rule="evenodd" clip-rule="evenodd" d="M12 10.9091C14.0251 10.9091 15.6667 9.44384 15.6667 7.63636C15.6667 5.82889 14.0251 4.36364 12 4.36364C9.97496 4.36364 8.33334 5.82889 8.33334 7.63636C8.33334 9.44384 9.97496 10.9091 12 10.9091ZM12 8.72727C12.675 8.72727 13.2222 8.23885 13.2222 7.63636C13.2222 7.03388 12.675 6.54545 12 6.54545C11.325 6.54545 10.7778 7.03388 10.7778 7.63636C10.7778 8.23885 11.325 8.72727 12 8.72727Z" fill="white"/>
<path fill-rule="evenodd" clip-rule="evenodd" d="M13.7373 19.9372C16.2382 17.0818 20.5556 11.5351 20.5556 7.27273C20.5556 3.25611 16.7251 0 12 0C7.2749 0 3.44445 3.25611 3.44445 7.27273C3.44445 11.5351 7.76189 17.0818 10.2627 19.9372C11.161 20.9628 12.839 20.9628 13.7373 19.9372ZM15.9386 13.0873C17.2798 10.8939 18.1111 8.83999 18.1111 7.27273C18.1111 4.56019 15.4888 2.18182 12 2.18182C8.51117 2.18182 5.88889 4.56019 5.88889 7.27273C5.88889 8.83999 6.72026 10.8939 8.06144 13.0873C9.29778 15.1092 10.816 17.0096 12 18.3769C13.184 17.0096 14.7022 15.1092 15.9386 13.0873Z" fill="white"/>
<path fill-rule="evenodd" clip-rule="evenodd" d="M5.21461 18.5446C5.56941 18.4039 5.96234 18.2722 6.38906 18.1525C5.95677 17.5357 5.52539 16.8944 5.10562 16.236C2.60195 17.0359 1 18.2619 1 19.6364C1 22.0464 5.92487 24 12 24C18.0752 24 23 22.0464 23 19.6364C23 18.2619 21.398 17.0359 18.8944 16.236C18.4746 16.8944 18.0433 17.5357 17.611 18.1525C18.0377 18.2722 18.4306 18.4039 18.7854 18.5446C19.594 18.8654 20.097 19.1908 20.3648 19.442C20.4601 19.5313 20.5108 19.596 20.537 19.6364C20.5108 19.6768 20.4601 19.7414 20.3648 19.8308C20.097 20.082 19.594 20.4074 18.7854 20.7281C17.1744 21.3673 14.7774 21.8182 12 21.8182C9.22259 21.8182 6.82564 21.3673 5.21461 20.7281C4.406 20.4074 3.90297 20.082 3.63517 19.8308C3.53992 19.7414 3.48917 19.6768 3.46297 19.6364C3.48917 19.596 3.53992 19.5313 3.63517 19.442C3.90297 19.1908 4.406 18.8654 5.21461 18.5446ZM20.5629 19.5855C20.5629 19.5855 20.5624 19.5892 20.5592 19.5967C20.5608 19.5892 20.5629 19.5855 20.5629 19.5855ZM3.43714 19.5855C3.43714 19.5855 3.43915 19.5892 3.44077 19.5967C3.43754 19.5892 3.43714 19.5855 3.43714 19.5855ZM3.43714 19.6872C3.43714 19.6872 3.43754 19.6836 3.44077 19.6762C3.43915 19.6835 3.43714 19.6872 3.43714 19.6872ZM20.5592 19.6762C20.5624 19.6836 20.5629 19.6872 20.5629 19.6872C20.5629 19.6872 20.5608 19.6835 20.5592 19.6762Z" fill="white"/>
</svg>
