<svg width="24" height="24" viewBox="0 0 24 24" fill="none" xmlns="http://www.w3.org/2000/svg">
<path d="M4.59375 3.78125C4.25 3.875 4 4.15625 4 4.5C4 12.5312 10.5 19 18.5 19C18.875 19 19.1562 18.7812 19.25 18.4375L20 15.1875C20.0625 14.8438 19.9062 14.4688 19.5625 14.3125L16.0625 12.8125C15.75 12.6875 15.4062 12.7812 15.1875 13.0312L13.625 14.9375C11.1875 13.7812 9.21875 11.7812 8.09375 9.40625L10 7.84375C10.25 7.625 10.3438 7.28125 10.2188 6.96875L8.71875 3.46875C8.5625 3.125 8.1875 2.9375 7.84375 3.03125L4.59375 3.78125Z" fill="white"/>
</svg>
