<svg width="24" height="24" viewBox="0 0 24 24" fill="none" xmlns="http://www.w3.org/2000/svg">
<path d="M11.9997 24C9.89955 24 7.83922 23.4441 6.01488 22.3888L1.33962 24L2.30003 19.0489C0.794047 16.9843 0 14.5565 0 11.9997C0 5.38295 5.38294 0 11.9997 0C18.6171 0 24 5.38295 24 11.9997C24 18.6168 18.6168 24 11.9997 24ZM6.2304 20.4265L6.59208 20.6529C8.22163 21.6745 10.0919 22.2147 11.9997 22.2147C17.6327 22.2147 22.215 17.6325 22.215 12C22.215 6.36779 17.633 1.78582 11.9997 1.78582C6.36752 1.78582 1.78554 6.36806 1.78554 12C1.78554 14.2915 2.53627 16.4629 3.95509 18.2788L4.20595 18.5995L3.68083 21.3048L6.2304 20.4265ZM5.81371 10.2734C6.16502 11.8204 7.65347 13.5201 9.32952 15.1966C11.0056 16.8727 14.1512 17.9476 15.4722 17.9476C16.7935 17.9476 17.6723 17.021 17.9729 16.7199C18.2737 16.4193 18.4207 15.5302 18.4207 15.1669C18.4207 14.8036 18.1799 14.7159 18.1799 14.7159C18.1799 14.7159 16.1228 13.6901 15.6482 13.4733C15.1727 13.2564 14.8868 13.6256 14.8868 13.6256C14.8868 13.6256 13.9955 14.7393 13.8318 14.9033C13.6673 15.0672 13.4092 15.0324 13.4092 15.0324C13.4092 15.0324 11.6056 14.3622 10.6668 13.422C9.72602 12.4826 9.27159 11.7497 8.97847 11.3516C8.68535 10.953 8.97847 10.5777 8.97847 10.5777C8.97847 10.5777 9.50597 10.0502 9.74036 9.68696C9.97475 9.32342 9.82195 8.94845 9.82195 8.94845C9.82195 8.94845 8.93144 6.76775 8.73186 6.39278C8.53282 6.01755 7.79378 6.01755 7.21977 6.08824C6.64603 6.15839 5.94154 7.38905 5.94154 7.38905C5.5089 8.02684 5.46186 8.72601 5.81371 10.2734Z" fill="white"/>
</svg>
