<svg width="24" height="25" viewBox="0 0 24 25" fill="none" xmlns="http://www.w3.org/2000/svg">
<path d="M23.5269 1.83453C23.2218 1.53235 22.8162 1.36595 22.3848 1.36595C21.9534 1.36595 21.5477 1.53235 21.2427 1.83453L16.3431 6.68808C15.0807 5.45848 13.4975 4.67517 11.7749 4.41629C11.3568 4.35347 10.9305 4.32147 10.4986 4.32147C5.89715 4.32147 2.15356 8.02989 2.15356 12.5881C2.15356 13.9104 2.45931 15.1738 3.06231 16.3433C3.63737 17.4587 4.47699 18.4469 5.4904 19.2012C5.53886 19.2373 5.5956 19.2547 5.65186 19.2547C5.73365 19.2547 5.8144 19.2179 5.86727 19.1482C5.95659 19.0305 5.93263 18.8633 5.81376 18.7749C3.82984 17.2982 2.69195 15.0432 2.69195 12.5881C2.69195 8.32397 6.19402 4.8548 10.4986 4.8548C12.5654 4.8548 14.4951 5.638 15.9624 7.0652L11.3445 11.6398L8.67956 8.99992C8.3745 8.69773 7.96883 8.53128 7.53742 8.53128C7.106 8.53128 6.70038 8.69773 6.39533 8.99992C6.09022 9.30216 5.92224 9.70392 5.92224 10.1313C5.92224 10.5586 6.09027 10.9605 6.39533 11.2626L11.1541 15.9767C11.2067 16.0288 11.2756 16.0548 11.3445 16.0548C11.4134 16.0548 11.4823 16.0288 11.5349 15.9767L17.7788 9.79133C18.1282 10.6815 18.3053 11.6204 18.3053 12.5881C18.3053 16.8523 14.8032 20.3215 10.4986 20.3215C10.35 20.3215 10.2294 20.4408 10.2294 20.5881C10.2294 20.7354 10.35 20.8548 10.4986 20.8548C15.1001 20.8548 18.8437 17.1464 18.8437 12.5881C18.8437 11.4751 18.6243 10.3975 18.1921 9.38195L19.409 8.17645C20.0964 9.53816 20.4588 11.0555 20.4588 12.5881C20.4588 18.0287 15.9907 22.4548 10.4986 22.4548C5.00655 22.4548 0.538391 18.0287 0.538391 12.5881C0.538391 7.14765 5.00655 2.72147 10.4986 2.72147C11.9636 2.72147 13.3745 3.02925 14.6923 3.63629C14.8271 3.69843 14.9872 3.64051 15.05 3.50696C15.1126 3.37341 15.0542 3.2148 14.9193 3.15272C13.5299 2.51267 12.0426 2.18813 10.4986 2.18813C4.70968 2.18813 0 6.85357 0 12.5881C0 18.3227 4.70968 22.9881 10.4986 22.9881C16.2876 22.9881 20.9972 18.3227 20.9972 12.5881C20.9972 10.9135 20.5861 9.25608 19.8087 7.78046L23.5269 4.09725C23.832 3.79507 23.9999 3.39325 24 2.96589C24 2.53853 23.832 2.13677 23.5269 1.83453Z" fill="#D3AC4A"/>
<path d="M21.2664 20.3215C20.5243 20.3215 19.9205 20.9196 19.9205 21.6548C19.9205 22.39 20.5243 22.9881 21.2664 22.9881C22.0086 22.9881 22.6124 22.39 22.6124 21.6548C22.6124 20.9196 22.0086 20.3215 21.2664 20.3215Z" fill="#D3AC4A"/>
<path d="M1.07678 22.4548C0.483044 22.4548 0 22.9333 0 23.5215C0 24.1096 0.483044 24.5881 1.07678 24.5881C1.67052 24.5881 2.15356 24.1096 2.15356 23.5215C2.15356 22.9333 1.67052 22.4548 1.07678 22.4548Z" fill="#D3AC4A"/>
<path d="M4.30712 2.72147C4.90086 2.72147 5.38391 2.24296 5.38391 1.6548C5.38391 1.06664 4.90086 0.588135 4.30712 0.588135C3.71339 0.588135 3.23034 1.06664 3.23034 1.6548C3.23034 2.24296 3.71339 2.72147 4.30712 2.72147Z" fill="#D3AC4A"/>
</svg>
